<svg width="322" height="122" viewBox="0 0 322 122" fill="none" xmlns="http://www.w3.org/2000/svg">
<path opacity="0.2" d="M34.664 30.8V98H19.112V43.28H5.672V30.8H34.664ZM96.5458 85.328V98H45.7617V87.92L71.6818 63.44C74.4338 60.816 76.2898 58.576 77.2498 56.72C78.2098 54.8 78.6898 52.912 78.6898 51.056C78.6898 48.368 77.7618 46.32 75.9058 44.912C74.1138 43.44 71.4578 42.704 67.9377 42.704C64.9938 42.704 62.3378 43.28 59.9698 44.432C57.6018 45.52 55.6178 47.184 54.0178 49.424L42.6898 42.128C45.3138 38.224 48.9298 35.184 53.5378 33.008C58.1458 30.768 63.4258 29.648 69.3778 29.648C74.3698 29.648 78.7218 30.48 82.4338 32.144C86.2098 33.744 89.1218 36.048 91.1698 39.056C93.2818 42 94.3378 45.488 94.3378 49.52C94.3378 53.168 93.5698 56.592 92.0338 59.792C90.4978 62.992 87.5218 66.64 83.1058 70.736L67.6498 85.328H96.5458ZM158.95 99.152C153.382 99.152 148.422 97.776 144.07 95.024C139.718 92.272 136.294 88.304 133.798 83.12C131.366 77.872 130.15 71.632 130.15 64.4C130.15 57.168 131.366 50.96 133.798 45.776C136.294 40.528 139.718 36.528 144.07 33.776C148.422 31.024 153.382 29.648 158.95 29.648C164.518 29.648 169.478 31.024 173.83 33.776C178.182 36.528 181.574 40.528 184.006 45.776C186.502 50.96 187.75 57.168 187.75 64.4C187.75 71.632 186.502 77.872 184.006 83.12C181.574 88.304 178.182 92.272 173.83 95.024C169.478 97.776 164.518 99.152 158.95 99.152ZM158.95 86C163.046 86 166.246 84.24 168.55 80.72C170.918 77.2 172.102 71.76 172.102 64.4C172.102 57.04 170.918 51.6 168.55 48.08C166.246 44.56 163.046 42.8 158.95 42.8C154.918 42.8 151.718 44.56 149.35 48.08C147.046 51.6 145.894 57.04 145.894 64.4C145.894 71.76 147.046 77.2 149.35 80.72C151.718 84.24 154.918 86 158.95 86ZM224.107 99.152C218.539 99.152 213.579 97.776 209.227 95.024C204.875 92.272 201.451 88.304 198.955 83.12C196.523 77.872 195.307 71.632 195.307 64.4C195.307 57.168 196.523 50.96 198.955 45.776C201.451 40.528 204.875 36.528 209.227 33.776C213.579 31.024 218.539 29.648 224.107 29.648C229.675 29.648 234.635 31.024 238.987 33.776C243.339 36.528 246.731 40.528 249.163 45.776C251.659 50.96 252.907 57.168 252.907 64.4C252.907 71.632 251.659 77.872 249.163 83.12C246.731 88.304 243.339 92.272 238.987 95.024C234.635 97.776 229.675 99.152 224.107 99.152ZM224.107 86C228.203 86 231.403 84.24 233.707 80.72C236.075 77.2 237.259 71.76 237.259 64.4C237.259 57.04 236.075 51.6 233.707 48.08C231.403 44.56 228.203 42.8 224.107 42.8C220.075 42.8 216.875 44.56 214.507 48.08C212.203 51.6 211.051 57.04 211.051 64.4C211.051 71.76 212.203 77.2 214.507 80.72C216.875 84.24 220.075 86 224.107 86ZM289.263 99.152C283.695 99.152 278.735 97.776 274.383 95.024C270.031 92.272 266.607 88.304 264.111 83.12C261.679 77.872 260.463 71.632 260.463 64.4C260.463 57.168 261.679 50.96 264.111 45.776C266.607 40.528 270.031 36.528 274.383 33.776C278.735 31.024 283.695 29.648 289.263 29.648C294.831 29.648 299.791 31.024 304.143 33.776C308.495 36.528 311.887 40.528 314.319 45.776C316.815 50.96 318.063 57.168 318.063 64.4C318.063 71.632 316.815 77.872 314.319 83.12C311.887 88.304 308.495 92.272 304.143 95.024C299.791 97.776 294.831 99.152 289.263 99.152ZM289.263 86C293.359 86 296.559 84.24 298.863 80.72C301.231 77.2 302.415 71.76 302.415 64.4C302.415 57.04 301.231 51.6 298.863 48.08C296.559 44.56 293.359 42.8 289.263 42.8C285.231 42.8 282.031 44.56 279.663 48.08C277.359 51.6 276.207 57.04 276.207 64.4C276.207 71.76 277.359 77.2 279.663 80.72C282.031 84.24 285.231 86 289.263 86Z" fill="#2583ED"/>
<path d="M29.664 25.8V93H14.112V38.28H0.672V25.8H29.664ZM91.5458 80.328V93H40.7617V82.92L66.6818 58.44C69.4338 55.816 71.2898 53.576 72.2498 51.72C73.2098 49.8 73.6898 47.912 73.6898 46.056C73.6898 43.368 72.7618 41.32 70.9058 39.912C69.1138 38.44 66.4578 37.704 62.9377 37.704C59.9938 37.704 57.3378 38.28 54.9698 39.432C52.6018 40.52 50.6178 42.184 49.0178 44.424L37.6898 37.128C40.3138 33.224 43.9298 30.184 48.5378 28.008C53.1458 25.768 58.4258 24.648 64.3778 24.648C69.3698 24.648 73.7218 25.48 77.4338 27.144C81.2098 28.744 84.1218 31.048 86.1698 34.056C88.2818 37 89.3378 40.488 89.3378 44.52C89.3378 48.168 88.5698 51.592 87.0338 54.792C85.4978 57.992 82.5218 61.64 78.1058 65.736L62.6498 80.328H91.5458ZM153.95 94.152C148.382 94.152 143.422 92.776 139.07 90.024C134.718 87.272 131.294 83.304 128.798 78.12C126.366 72.872 125.15 66.632 125.15 59.4C125.15 52.168 126.366 45.96 128.798 40.776C131.294 35.528 134.718 31.528 139.07 28.776C143.422 26.024 148.382 24.648 153.95 24.648C159.518 24.648 164.478 26.024 168.83 28.776C173.182 31.528 176.574 35.528 179.006 40.776C181.502 45.96 182.75 52.168 182.75 59.4C182.75 66.632 181.502 72.872 179.006 78.12C176.574 83.304 173.182 87.272 168.83 90.024C164.478 92.776 159.518 94.152 153.95 94.152ZM153.95 81C158.046 81 161.246 79.24 163.55 75.72C165.918 72.2 167.102 66.76 167.102 59.4C167.102 52.04 165.918 46.6 163.55 43.08C161.246 39.56 158.046 37.8 153.95 37.8C149.918 37.8 146.718 39.56 144.35 43.08C142.046 46.6 140.894 52.04 140.894 59.4C140.894 66.76 142.046 72.2 144.35 75.72C146.718 79.24 149.918 81 153.95 81ZM219.107 94.152C213.539 94.152 208.579 92.776 204.227 90.024C199.875 87.272 196.451 83.304 193.955 78.12C191.523 72.872 190.307 66.632 190.307 59.4C190.307 52.168 191.523 45.96 193.955 40.776C196.451 35.528 199.875 31.528 204.227 28.776C208.579 26.024 213.539 24.648 219.107 24.648C224.675 24.648 229.635 26.024 233.987 28.776C238.339 31.528 241.731 35.528 244.163 40.776C246.659 45.96 247.907 52.168 247.907 59.4C247.907 66.632 246.659 72.872 244.163 78.12C241.731 83.304 238.339 87.272 233.987 90.024C229.635 92.776 224.675 94.152 219.107 94.152ZM219.107 81C223.203 81 226.403 79.24 228.707 75.72C231.075 72.2 232.259 66.76 232.259 59.4C232.259 52.04 231.075 46.6 228.707 43.08C226.403 39.56 223.203 37.8 219.107 37.8C215.075 37.8 211.875 39.56 209.507 43.08C207.203 46.6 206.051 52.04 206.051 59.4C206.051 66.76 207.203 72.2 209.507 75.72C211.875 79.24 215.075 81 219.107 81ZM284.263 94.152C278.695 94.152 273.735 92.776 269.383 90.024C265.031 87.272 261.607 83.304 259.111 78.12C256.679 72.872 255.463 66.632 255.463 59.4C255.463 52.168 256.679 45.96 259.111 40.776C261.607 35.528 265.031 31.528 269.383 28.776C273.735 26.024 278.695 24.648 284.263 24.648C289.831 24.648 294.791 26.024 299.143 28.776C303.495 31.528 306.887 35.528 309.319 40.776C311.815 45.96 313.063 52.168 313.063 59.4C313.063 66.632 311.815 72.872 309.319 78.12C306.887 83.304 303.495 87.272 299.143 90.024C294.791 92.776 289.831 94.152 284.263 94.152ZM284.263 81C288.359 81 291.559 79.24 293.863 75.72C296.231 72.2 297.415 66.76 297.415 59.4C297.415 52.04 296.231 46.6 293.863 43.08C291.559 39.56 288.359 37.8 284.263 37.8C280.231 37.8 277.031 39.56 274.663 43.08C272.359 46.6 271.207 52.04 271.207 59.4C271.207 66.76 272.359 72.2 274.663 75.72C277.031 79.24 280.231 81 284.263 81Z" fill="#3A405A"/>
<mask id="mask0_410_7561" style="mask-type:alpha" maskUnits="userSpaceOnUse" x="0" y="24" width="314" height="70">
<path d="M29.3093 25.4294V92.8443H13.7076V37.9493H0.224609V25.4294H29.3093Z" fill="white"/>
<path d="M91.389 80.1318V92.8443H40.4426V82.7321L66.4455 58.1738C69.2063 55.5414 71.0682 53.2942 72.0313 51.4323C72.9944 49.5061 73.4759 47.6121 73.4759 45.7502C73.4759 43.0536 72.5449 40.999 70.683 39.5865C68.8853 38.1098 66.2208 37.3714 62.6895 37.3714C59.7361 37.3714 57.0716 37.9493 54.696 39.105C52.3205 40.1964 50.3301 41.8658 48.725 44.1129L37.3608 36.7936C39.9932 32.8771 43.6207 29.8274 48.2435 27.6444C52.8662 25.3973 58.1631 24.2737 64.1341 24.2737C69.1421 24.2737 73.508 25.1083 77.2319 26.7777C81.02 28.3828 83.9413 30.6942 85.9958 33.7118C88.1146 36.6652 89.174 40.1643 89.174 44.2092C89.174 47.8689 88.4035 51.3039 86.8626 54.5141C85.3217 57.7243 82.3362 61.384 77.906 65.4931L62.4006 80.1318H91.389Z" fill="white"/>
<path d="M153.993 94C148.407 94 143.431 92.6196 139.066 89.8588C134.7 87.098 131.265 83.1173 128.761 77.9167C126.321 72.6519 125.101 66.392 125.101 59.1368C125.101 51.8817 126.321 45.6538 128.761 40.4533C131.265 35.1885 134.7 31.1757 139.066 28.4149C143.431 25.6541 148.407 24.2737 153.993 24.2737C159.579 24.2737 164.555 25.6541 168.921 28.4149C173.287 31.1757 176.689 35.1885 179.129 40.4533C181.633 45.6538 182.885 51.8817 182.885 59.1368C182.885 66.392 181.633 72.6519 179.129 77.9167C176.689 83.1173 173.287 87.098 168.921 89.8588C164.555 92.6196 159.579 94 153.993 94ZM153.993 80.8059C158.102 80.8059 161.312 79.0403 163.624 75.509C165.999 71.9778 167.187 66.5204 167.187 59.1368C167.187 51.7533 165.999 46.2959 163.624 42.7646C161.312 39.2334 158.102 37.4677 153.993 37.4677C149.948 37.4677 146.738 39.2334 144.362 42.7646C142.051 46.2959 140.895 51.7533 140.895 59.1368C140.895 66.5204 142.051 71.9778 144.362 75.509C146.738 79.0403 149.948 80.8059 153.993 80.8059Z" fill="white"/>
<path d="M219.358 94C213.772 94 208.796 92.6196 204.43 89.8588C200.064 87.098 196.629 83.1173 194.125 77.9167C191.686 72.6519 190.466 66.392 190.466 59.1368C190.466 51.8817 191.686 45.6538 194.125 40.4533C196.629 35.1885 200.064 31.1757 204.43 28.4149C208.796 25.6541 213.772 24.2737 219.358 24.2737C224.944 24.2737 229.919 25.6541 234.285 28.4149C238.651 31.1757 242.054 35.1885 244.494 40.4533C246.998 45.6538 248.25 51.8817 248.25 59.1368C248.25 66.392 246.998 72.6519 244.494 77.9167C242.054 83.1173 238.651 87.098 234.285 89.8588C229.919 92.6196 224.944 94 219.358 94ZM219.358 80.8059C223.467 80.8059 226.677 79.0403 228.988 75.509C231.364 71.9778 232.552 66.5204 232.552 59.1368C232.552 51.7533 231.364 46.2959 228.988 42.7646C226.677 39.2334 223.467 37.4677 219.358 37.4677C215.313 37.4677 212.103 39.2334 209.727 42.7646C207.416 46.2959 206.26 51.7533 206.26 59.1368C206.26 66.5204 207.416 71.9778 209.727 75.509C212.103 79.0403 215.313 80.8059 219.358 80.8059Z" fill="white"/>
<path d="M284.722 94C279.137 94 274.161 92.6196 269.795 89.8588C265.429 87.098 261.994 83.1173 259.49 77.9167C257.05 72.6519 255.83 66.392 255.83 59.1368C255.83 51.8817 257.05 45.6538 259.49 40.4533C261.994 35.1885 265.429 31.1757 269.795 28.4149C274.161 25.6541 279.137 24.2737 284.722 24.2737C290.308 24.2737 295.284 25.6541 299.65 28.4149C304.016 31.1757 307.419 35.1885 309.859 40.4533C312.363 45.6538 313.615 51.8817 313.615 59.1368C313.615 66.392 312.363 72.6519 309.859 77.9167C307.419 83.1173 304.016 87.098 299.65 89.8588C295.284 92.6196 290.308 94 284.722 94ZM284.722 80.8059C288.832 80.8059 292.042 79.0403 294.353 75.509C296.729 71.9778 297.917 66.5204 297.917 59.1368C297.917 51.7533 296.729 46.2959 294.353 42.7646C292.042 39.2334 288.832 37.4677 284.722 37.4677C280.678 37.4677 277.467 39.2334 275.092 42.7646C272.78 46.2959 271.625 51.7533 271.625 59.1368C271.625 66.5204 272.78 71.9778 275.092 75.509C277.467 79.0403 280.678 80.8059 284.722 80.8059Z" fill="white"/>
</mask>
<g mask="url(#mask0_410_7561)">
<path d="M16.0029 65.3223C-8.71588 53.4444 -18.1058 70.2714 -19.7109 80.1696C-13.4242 90.7366 2.51994 118.211 16.0029 143.572C32.8567 175.273 70.5769 170.458 160.865 187.311C251.153 204.165 305.325 156.413 345.052 132.737C384.779 109.062 372.74 57.2967 355.084 47.2647C337.428 37.2327 310.542 43.2519 285.663 57.2967C260.783 71.3415 190.559 65.3223 160.865 57.2967C131.17 49.2711 97.4627 56.4941 78.6025 65.3223L78.5861 65.33C59.7349 74.1539 46.8925 80.1653 16.0029 65.3223Z" fill="#2583ED" stroke="#2583ED" stroke-opacity="0.2" stroke-width="8"/>
</g>
</svg>
