<svg width="100" height="122" viewBox="0 0 100 122" fill="none" xmlns="http://www.w3.org/2000/svg">
<path opacity="0.2" d="M34.664 30.8V98H19.112V43.28H5.672V30.8H34.664ZM69.3778 56.048C78.8498 56.048 85.8258 57.936 90.3058 61.712C94.8498 65.488 97.1218 70.544 97.1218 76.88C97.1218 80.976 96.0978 84.72 94.0498 88.112C92.0018 91.44 88.8658 94.128 84.6418 96.176C80.4818 98.16 75.3298 99.152 69.1858 99.152C64.4498 99.152 59.7778 98.544 55.1698 97.328C50.6258 96.048 46.7538 94.256 43.5538 91.952L49.6978 80.048C52.2578 81.968 55.2018 83.472 58.5298 84.56C61.8578 85.584 65.2818 86.096 68.8018 86.096C72.7058 86.096 75.7778 85.328 78.0178 83.792C80.2578 82.256 81.3778 80.112 81.3778 77.36C81.3778 74.48 80.1938 72.304 77.8258 70.832C75.5218 69.36 71.4898 68.624 65.7298 68.624H48.5458L52.0018 30.8H92.9938V43.28H64.9618L63.9058 56.048H69.3778Z" fill="#2583ED"/>
<path d="M29.664 25.8V93H14.112V38.28H0.672V25.8H29.664ZM64.3778 51.048C73.8498 51.048 80.8258 52.936 85.3058 56.712C89.8498 60.488 92.1218 65.544 92.1218 71.88C92.1218 75.976 91.0978 79.72 89.0498 83.112C87.0018 86.44 83.8658 89.128 79.6418 91.176C75.4818 93.16 70.3298 94.152 64.1858 94.152C59.4498 94.152 54.7778 93.544 50.1698 92.328C45.6258 91.048 41.7538 89.256 38.5538 86.952L44.6978 75.048C47.2578 76.968 50.2018 78.472 53.5298 79.56C56.8578 80.584 60.2818 81.096 63.8018 81.096C67.7058 81.096 70.7778 80.328 73.0178 78.792C75.2578 77.256 76.3778 75.112 76.3778 72.36C76.3778 69.48 75.1938 67.304 72.8258 65.832C70.5218 64.36 66.4898 63.624 60.7298 63.624H43.5458L47.0018 25.8H87.9938V38.28H59.9618L58.9058 51.048H64.3778Z" fill="#3A405A"/>
<mask id="mask0_410_7573" style="mask-type:alpha" maskUnits="userSpaceOnUse" x="0" y="25" width="93" height="70">
<path d="M29.664 25.8V93H14.112V38.28H0.672V25.8H29.664ZM64.3778 51.048C73.8498 51.048 80.8258 52.936 85.3058 56.712C89.8498 60.488 92.1218 65.544 92.1218 71.88C92.1218 75.976 91.0978 79.72 89.0498 83.112C87.0018 86.44 83.8658 89.128 79.6418 91.176C75.4818 93.16 70.3298 94.152 64.1858 94.152C59.4498 94.152 54.7778 93.544 50.1698 92.328C45.6258 91.048 41.7538 89.256 38.5538 86.952L44.6978 75.048C47.2578 76.968 50.2018 78.472 53.5298 79.56C56.8578 80.584 60.2818 81.096 63.8018 81.096C67.7058 81.096 70.7778 80.328 73.0178 78.792C75.2578 77.256 76.3778 75.112 76.3778 72.36C76.3778 69.48 75.1938 67.304 72.8258 65.832C70.5218 64.36 66.4898 63.624 60.7298 63.624H43.5458L47.0018 25.8H87.9938V38.28H59.9618L58.9058 51.048H64.3778Z" fill="#3A405A"/>
</mask>
<g mask="url(#mask0_410_7573)">
<path d="M-42.8575 81.4184C-67.873 69.345 -77.3756 86.449 -79 96.5101C-72.6378 107.251 -56.5023 135.178 -42.8575 160.956C-25.8016 193.179 12.3714 188.284 103.743 205.415C195.114 222.546 249.937 174.008 290.14 149.943C330.344 125.878 318.161 73.2607 300.293 63.0636C282.425 52.8665 255.216 58.9848 230.038 73.2607C204.86 87.5367 133.794 81.4184 103.743 73.2607C73.6917 65.103 39.5797 72.445 20.4933 81.4184L20.4766 81.4263C1.39924 90.3954 -11.5973 96.5057 -42.8575 81.4184Z" fill="#2583ED" stroke="#2583ED" stroke-opacity="0.2" stroke-width="8"/>
</g>
</svg>
