<svg width="119" height="122" viewBox="0 0 119 122" fill="none" xmlns="http://www.w3.org/2000/svg">
<path opacity="0.2" d="M58.952 85.328V98H8.168V87.92L34.088 63.44C36.84 60.816 38.696 58.576 39.656 56.72C40.616 54.8 41.096 52.912 41.096 51.056C41.096 48.368 40.168 46.32 38.312 44.912C36.52 43.44 33.864 42.704 30.344 42.704C27.4 42.704 24.744 43.28 22.376 44.432C20.008 45.52 18.024 47.184 16.424 49.424L5.096 42.128C7.72 38.224 11.336 35.184 15.944 33.008C20.552 30.768 25.832 29.648 31.784 29.648C36.776 29.648 41.128 30.48 44.84 32.144C48.616 33.744 51.528 36.048 53.576 39.056C55.688 42 56.744 45.488 56.744 49.52C56.744 53.168 55.976 56.592 54.44 59.792C52.904 62.992 49.928 66.64 45.512 70.736L30.056 85.328H58.952ZM88.409 56.048C97.881 56.048 104.857 57.936 109.337 61.712C113.881 65.488 116.153 70.544 116.153 76.88C116.153 80.976 115.129 84.72 113.081 88.112C111.033 91.44 107.897 94.128 103.673 96.176C99.513 98.16 94.361 99.152 88.217 99.152C83.481 99.152 78.809 98.544 74.201 97.328C69.657 96.048 65.785 94.256 62.585 91.952L68.729 80.048C71.289 81.968 74.233 83.472 77.561 84.56C80.889 85.584 84.313 86.096 87.833 86.096C91.737 86.096 94.809 85.328 97.049 83.792C99.289 82.256 100.409 80.112 100.409 77.36C100.409 74.48 99.225 72.304 96.857 70.832C94.553 69.36 90.521 68.624 84.761 68.624H67.577L71.033 30.8H112.025V43.28H83.993L82.937 56.048H88.409Z" fill="#2583ED"/>
<path d="M53.952 80.328V93H3.168V82.92L29.088 58.44C31.84 55.816 33.696 53.576 34.656 51.72C35.616 49.8 36.096 47.912 36.096 46.056C36.096 43.368 35.168 41.32 33.312 39.912C31.52 38.44 28.864 37.704 25.344 37.704C22.4 37.704 19.744 38.28 17.376 39.432C15.008 40.52 13.024 42.184 11.424 44.424L0.096 37.128C2.72 33.224 6.336 30.184 10.944 28.008C15.552 25.768 20.832 24.648 26.784 24.648C31.776 24.648 36.128 25.48 39.84 27.144C43.616 28.744 46.528 31.048 48.576 34.056C50.688 37 51.744 40.488 51.744 44.52C51.744 48.168 50.976 51.592 49.44 54.792C47.904 57.992 44.928 61.64 40.512 65.736L25.056 80.328H53.952ZM83.409 51.048C92.881 51.048 99.857 52.936 104.337 56.712C108.881 60.488 111.153 65.544 111.153 71.88C111.153 75.976 110.129 79.72 108.081 83.112C106.033 86.44 102.897 89.128 98.673 91.176C94.513 93.16 89.361 94.152 83.217 94.152C78.481 94.152 73.809 93.544 69.201 92.328C64.657 91.048 60.785 89.256 57.585 86.952L63.729 75.048C66.289 76.968 69.233 78.472 72.561 79.56C75.889 80.584 79.313 81.096 82.833 81.096C86.737 81.096 89.809 80.328 92.049 78.792C94.289 77.256 95.409 75.112 95.409 72.36C95.409 69.48 94.225 67.304 91.857 65.832C89.553 64.36 85.521 63.624 79.761 63.624H62.577L66.033 25.8H107.025V38.28H78.993L77.937 51.048H83.409Z" fill="#3A405A"/>
<mask id="mask0_410_7567" style="mask-type:alpha" maskUnits="userSpaceOnUse" x="0" y="24" width="112" height="71">
<path d="M53.952 80.328V93H3.168V82.92L29.088 58.44C31.84 55.816 33.696 53.576 34.656 51.72C35.616 49.8 36.096 47.912 36.096 46.056C36.096 43.368 35.168 41.32 33.312 39.912C31.52 38.44 28.864 37.704 25.344 37.704C22.4 37.704 19.744 38.28 17.376 39.432C15.008 40.52 13.024 42.184 11.424 44.424L0.096 37.128C2.72 33.224 6.336 30.184 10.944 28.008C15.552 25.768 20.832 24.648 26.784 24.648C31.776 24.648 36.128 25.48 39.84 27.144C43.616 28.744 46.528 31.048 48.576 34.056C50.688 37 51.744 40.488 51.744 44.52C51.744 48.168 50.976 51.592 49.44 54.792C47.904 57.992 44.928 61.64 40.512 65.736L25.056 80.328H53.952ZM83.409 51.048C92.881 51.048 99.857 52.936 104.337 56.712C108.881 60.488 111.153 65.544 111.153 71.88C111.153 75.976 110.129 79.72 108.081 83.112C106.033 86.44 102.897 89.128 98.673 91.176C94.513 93.16 89.361 94.152 83.217 94.152C78.481 94.152 73.809 93.544 69.201 92.328C64.657 91.048 60.785 89.256 57.585 86.952L63.729 75.048C66.289 76.968 69.233 78.472 72.561 79.56C75.889 80.584 79.313 81.096 82.833 81.096C86.737 81.096 89.809 80.328 92.049 78.792C94.289 77.256 95.409 75.112 95.409 72.36C95.409 69.48 94.225 67.304 91.857 65.832C89.553 64.36 85.521 63.624 79.761 63.624H62.577L66.033 25.8H107.025V38.28H78.993L77.937 51.048H83.409Z" fill="#3A405A"/>
</mask>
<g mask="url(#mask0_410_7567)">
<path d="M-40.8575 78.4184C-65.873 66.345 -75.3756 83.449 -77 93.5101C-70.6378 104.251 -54.5023 132.178 -40.8575 157.956C-23.8016 190.179 14.3714 185.284 105.743 202.415C197.114 219.546 251.937 171.008 292.14 146.943C332.344 122.878 320.161 70.2607 302.293 60.0636C284.425 49.8665 257.216 55.9848 232.038 70.2607C206.86 84.5367 135.794 78.4184 105.743 70.2607C75.6917 62.103 41.5797 69.445 22.4933 78.4184L22.4766 78.4263C3.39924 87.3954 -9.59734 93.5057 -40.8575 78.4184Z" fill="#2583ED" stroke="#2583ED" stroke-opacity="0.2" stroke-width="8"/>
</g>
</svg>
