<svg width="32" height="32" viewBox="0 0 32 32" fill="none" xmlns="http://www.w3.org/2000/svg">
<path fill-rule="evenodd" clip-rule="evenodd" d="M29.5 8.75V20.75V30.75C29.5 31.75 28.8333 32 28.5 32H18.25H3.75C3.05963 32 2.5 31.4404 2.5 30.75V8.75C2.5 8.05962 3.05963 7.5 3.75 7.5H7.55912C8.05569 3.28269 11.6514 0 16 0C20.3486 0 23.9443 3.28269 24.4409 7.5H28.25C28.9404 7.5 29.5 8.05962 29.5 8.75ZM27 10V20.75V29.5H18.25H5V10H7.5V13.75C7.5 14.4404 8.05963 15 8.75 15C9.44037 15 10 14.4404 10 13.75V10H22V13.75C22 14.4404 22.5596 15 23.25 15C23.9404 15 24.5 14.4404 24.5 13.75V10H27ZM16 2.5C18.9677 2.5 21.4387 4.66594 21.9162 7.5H10.0838C10.5613 4.66594 13.0323 2.5 16 2.5Z" fill="#2583ED"/>
</svg>
