<svg width="25" height="25" viewBox="0 0 25 25" fill="none" xmlns="http://www.w3.org/2000/svg">
<g clip-path="url(#clip0_248_903)">
<path d="M22.7704 0.5H15.88C14.8724 0.5 14.0527 1.31963 14.0527 2.32723V9.21771C14.0527 10.2253 14.8724 11.0449 15.88 11.0449H22.7704C23.778 11.0449 24.5977 10.2253 24.5977 9.21771V2.32723C24.5977 1.31963 23.778 0.5 22.7704 0.5Z" fill="white"/>
<path d="M9.31536 13.9551H2.42488C1.41729 13.9551 0.597656 14.7746 0.597656 15.7822V22.6727C0.597656 23.6803 1.41729 24.4999 2.42488 24.4999H9.31536C10.323 24.4999 11.1426 23.6803 11.1426 22.6727V15.7822C11.1424 14.7746 10.323 13.9551 9.31536 13.9551Z" fill="white"/>
</g>
<defs>
<clipPath id="clip0_248_903">
<path d="M0.597656 12.5C0.597656 5.87258 5.97024 0.5 12.5977 0.5C19.2251 0.5 24.5977 5.87258 24.5977 12.5C24.5977 19.1274 19.2251 24.5 12.5977 24.5C5.97024 24.5 0.597656 19.1274 0.597656 12.5Z" fill="white"/>
</clipPath>
</defs>
</svg>
