<svg width="32" height="32" viewBox="0 0 32 32" fill="none" xmlns="http://www.w3.org/2000/svg">
<g clip-path="url(#clip0_327_3119)">
<path d="M26.2764 31.4545C19.4473 32.1831 12.56 32.1831 5.73091 31.4545C4.40476 31.3145 3.16668 30.7241 2.22308 29.7818C1.27947 28.8396 0.687362 27.6023 0.545458 26.2764C-0.183121 19.4473 -0.183121 12.56 0.545458 5.73091C0.685501 4.40476 1.27588 3.16668 2.21816 2.22308C3.16044 1.27947 4.39769 0.687362 5.72364 0.545458C12.5527 -0.183121 19.44 -0.183121 26.2691 0.545458C27.5952 0.685501 28.8333 1.27588 29.7769 2.21816C30.7205 3.16044 31.3126 4.39769 31.4545 5.72364C32.1831 12.5527 32.1831 19.44 31.4545 26.2691C31.3145 27.5952 30.7241 28.8333 29.7818 29.7769C28.8396 30.7205 27.6023 31.3126 26.2764 31.4545Z" fill="#4169E1"/>
<path d="M25.2218 21.7163C24.7563 21.7817 22.48 21.7163 22.3618 21.7163C21.7734 21.7238 21.2057 21.4991 20.7818 21.0908C20.3018 20.629 19.8727 20.1199 19.4036 19.6363C19.2649 19.4894 19.1147 19.3539 18.9545 19.2308C18.58 18.9417 18.2091 19.0072 18.0327 19.449C17.8949 19.9264 17.7988 20.4149 17.7454 20.909C17.7145 21.3563 17.4309 21.6363 16.9291 21.6672C16.6182 21.6835 16.3073 21.689 16 21.6817C14.8802 21.6746 13.778 21.4023 12.7836 20.8872C11.7077 20.2877 10.7704 19.468 10.0327 18.4817C8.81998 16.9326 7.85089 15.2308 6.98544 13.4763C6.93998 13.389 6.05271 11.5017 6.03089 11.4126C5.95089 11.1145 6.03089 10.829 6.27635 10.7308C6.43271 10.6708 9.35635 10.7308 9.40544 10.7308C9.62279 10.7289 9.8351 10.7963 10.0116 10.9231C10.1881 11.05 10.3197 11.2297 10.3873 11.4363C10.9277 12.8201 11.6677 14.1175 12.5836 15.2872C12.7118 15.4436 12.8618 15.5808 13.0291 15.6945C13.2673 15.8563 13.4927 15.7999 13.5909 15.5254C13.7072 15.1444 13.7756 14.7505 13.7945 14.3526C13.8109 13.5635 13.7945 13.0435 13.7509 12.2563C13.7218 11.7508 13.5436 11.3072 12.7982 11.1654C12.5691 11.1254 12.5491 10.9363 12.6963 10.7472C13.0036 10.3545 13.4236 10.2926 13.8945 10.269C14.5963 10.229 15.2982 10.2563 16 10.269H16.1527C16.4582 10.2679 16.7629 10.299 17.0618 10.3617C17.2385 10.3975 17.3989 10.4893 17.5192 10.6237C17.6394 10.758 17.7131 10.9276 17.7291 11.1072C17.765 11.3063 17.7802 11.5086 17.7745 11.7108C17.7563 12.5726 17.7145 13.4326 17.7054 14.2945C17.6971 14.6357 17.7282 14.9767 17.7982 15.3108C17.8982 15.769 18.2127 15.8835 18.5254 15.5526C18.9304 15.1249 19.3018 14.6665 19.6363 14.1817C20.2279 13.2982 20.716 12.3495 21.0909 11.3545C21.2945 10.8435 21.4545 10.7308 22 10.7308H25.1018C25.2862 10.7276 25.4701 10.7521 25.6473 10.8035C25.71 10.82 25.7686 10.8493 25.8195 10.8895C25.8703 10.9296 25.9124 10.9799 25.9429 11.0371C25.9735 11.0942 25.9919 11.1571 25.997 11.2217C26.0021 11.2864 25.9939 11.3514 25.9727 11.4126C25.82 12.0926 25.4527 12.6726 25.0636 13.2308C24.4327 14.1254 23.7673 14.9963 23.1218 15.8763C23.0402 15.993 22.9655 16.1144 22.8982 16.2399C22.6545 16.6781 22.6727 16.9235 23.0254 17.289C23.5891 17.8672 24.1909 18.4108 24.7345 19.0072C25.1337 19.4407 25.4939 19.9086 25.8109 20.4054C26.2091 21.0217 25.9636 21.6108 25.2218 21.7163Z" fill="white"/>
</g>
<defs>
<clipPath id="clip0_327_3119">
<rect width="32" height="32" fill="white"/>
</clipPath>
</defs>
</svg>
