<svg width="24" height="24" viewBox="0 0 24 24" fill="none" xmlns="http://www.w3.org/2000/svg">
<path d="M7.1499 8.59253V4.99994C7.1499 4.58588 6.81421 4.24994 6.3999 4.24994C5.9856 4.24994 5.6499 4.58588 5.6499 4.99994V8.59256C4.83466 8.89832 4.25 9.67926 4.25 10.6C4.25 11.5208 4.83466 12.3017 5.6499 12.6075V18.9999C5.6499 19.414 5.9856 19.7499 6.3999 19.7499C6.81421 19.7499 7.1499 19.414 7.1499 18.9999V12.6075C7.96524 12.3018 8.55005 11.5208 8.55005 10.6C8.55005 9.67923 7.96524 8.89828 7.1499 8.59253Z" fill="#3A405A"/>
<path d="M12.7495 11.8592V4.99994C12.7495 4.58588 12.4138 4.24994 11.9995 4.24994C11.5852 4.24994 11.2495 4.58588 11.2495 4.99994V11.8592C10.4343 12.1649 9.84961 12.9459 9.84961 13.8666C9.84961 14.7874 10.4343 15.5683 11.2495 15.8741V18.9999C11.2495 19.414 11.5852 19.7499 11.9995 19.7499C12.4138 19.7499 12.7495 19.414 12.7495 18.9999V15.8741C13.5648 15.5684 14.1494 14.7874 14.1494 13.8666C14.1494 12.9458 13.5648 12.1649 12.7495 11.8592Z" fill="#3A405A"/>
<path d="M18.3494 8.59256V4.99994C18.3494 4.58588 18.0137 4.24994 17.5994 4.24994C17.1851 4.24994 16.8494 4.58588 16.8494 4.99994V8.59253C16.034 8.89828 15.4492 9.67923 15.4492 10.6C15.4492 11.5208 16.034 12.3018 16.8494 12.6075V18.9999C16.8494 19.414 17.1851 19.7499 17.5994 19.7499C18.0137 19.7499 18.3494 19.414 18.3494 18.9999V12.6075C19.1647 12.3018 19.7493 11.5208 19.7493 10.6C19.7493 9.67923 19.1647 8.89828 18.3494 8.59256Z" fill="#3A405A"/>
</svg>
