<svg width="32" height="32" viewBox="0 0 32 32" fill="none" xmlns="http://www.w3.org/2000/svg">
<g clip-path="url(#clip0_327_3115)">
<path d="M1.99961 2.17723C-0.515052 4.78923 -0.000385359 7.5639 -0.000385359 15.9932C-0.000385359 22.9932 -1.22172 30.0106 5.17028 31.6626C7.16628 32.1759 24.8516 32.1759 26.8449 31.6599C29.5063 30.9732 31.6716 28.8146 31.9676 25.0506C32.0089 24.5252 32.0089 7.47057 31.9663 6.93457C31.6516 2.92523 29.1836 0.614566 25.9316 0.146566C25.1863 0.0385658 25.0369 0.00656577 21.2129 -0.000100899C7.64895 0.00656577 4.67561 -0.597434 1.99961 2.17723Z" fill="url(#paint0_linear_327_3115)"/>
<path d="M15.9972 4.18523C11.1559 4.18523 6.55858 3.75456 4.80258 8.26123C4.07725 10.1226 4.18258 12.5399 4.18258 16.0012C4.18258 19.0386 4.08525 21.8932 4.80258 23.7399C6.55458 28.2492 11.1892 27.8172 15.9946 27.8172C20.6306 27.8172 25.4106 28.2999 27.1879 23.7399C27.9146 21.8599 27.8079 19.4786 27.8079 16.0012C27.8079 11.3852 28.0626 8.40523 25.8239 6.1679C23.5572 3.90123 20.4919 4.18523 15.9919 4.18523H15.9972ZM14.9386 6.31456C25.0372 6.29856 26.3226 5.1759 25.6132 20.7719C25.3612 26.2879 21.1612 25.6826 15.9986 25.6826C6.58525 25.6826 6.31458 25.4132 6.31458 15.9959C6.31458 6.46923 7.06125 6.3199 14.9386 6.3119V6.31456ZM22.3039 8.2759C21.5212 8.2759 20.8866 8.91056 20.8866 9.69323C20.8866 10.4759 21.5212 11.1106 22.3039 11.1106C23.0866 11.1106 23.7212 10.4759 23.7212 9.69323C23.7212 8.91056 23.0866 8.2759 22.3039 8.2759ZM15.9972 9.93323C12.6466 9.93323 9.93058 12.6506 9.93058 16.0012C9.93058 19.3519 12.6466 22.0679 15.9972 22.0679C19.3479 22.0679 22.0626 19.3519 22.0626 16.0012C22.0626 12.6506 19.3479 9.93323 15.9972 9.93323ZM15.9972 12.0626C21.2039 12.0626 21.2106 19.9399 15.9972 19.9399C10.7919 19.9399 10.7839 12.0626 15.9972 12.0626Z" fill="white"/>
</g>
<defs>
<linearGradient id="paint0_linear_327_3115" x1="2.06097" y1="29.956" x2="31.8016" y2="4.21587" gradientUnits="userSpaceOnUse">
<stop stop-color="#FFDD55"/>
<stop offset="0.5" stop-color="#FF543E"/>
<stop offset="1" stop-color="#C837AB"/>
</linearGradient>
<clipPath id="clip0_327_3115">
<rect width="32" height="32" fill="white"/>
</clipPath>
</defs>
</svg>
