<svg width="69" height="47" viewBox="0 0 69 47" fill="none" xmlns="http://www.w3.org/2000/svg">
<path d="M63.384 20.7086V22.8191H64.151C64.9601 22.8191 65.5942 22.5183 65.5942 21.716C65.5942 21.185 65.3326 20.7064 64.3128 20.7064C63.9936 20.7064 63.8207 20.695 63.384 20.7086ZM61.2646 28.1638V18.6392C61.7812 18.6392 64.151 18.6392 64.417 18.6392C66.9464 18.6392 67.8465 19.9314 67.8465 21.6887C67.8465 23.4573 66.7868 24.1798 66.2836 24.4396L68.9637 28.1638H66.3944L64.1643 24.8613H63.384V28.1638H61.2646Z" fill="#F41707"/>
<path d="M58.717 24.0658C58.717 26.9786 56.917 28.1638 54.9307 28.1638C52.5476 28.1638 50.8916 26.7621 50.8916 23.9701V18.6392H53.0109V23.5074C53.0109 24.9912 53.4476 26.1216 54.9307 26.1216C56.2142 26.1216 56.5977 25.1553 56.5977 23.6305V18.6392H58.717V24.0658Z" fill="#F41707"/>
<path d="M45.6202 46.9034H0V0H45.6202V16.0478H43.5054V2.17434H2.11264V44.7291H43.5054V30.7508H45.6202V46.9034Z" fill="#F41707"/>
<path d="M36.511 28.1661L32.115 22.4476V28.1661H30.1265V18.6367H31.8224L36.2206 24.3803L36.2162 18.6367H38.2025L38.2069 28.1661H36.511Z" fill="#F41707"/>
<path d="M40.7568 18.6353H48.4382V20.6774H45.6561V28.1667H43.5368V20.6774H40.7568V18.6353Z" fill="#F41707"/>
<path d="M9.31934 18.6353H11.4386V22.7879L14.4713 18.6353H17.014L13.5314 23.0341L17.2911 28.1667H14.6043L11.4386 23.6312V28.1667H9.31934V18.6353Z" fill="#F41707"/>
<path d="M22.8177 26.2016C24.5269 26.2016 25.4136 24.9594 25.4136 23.4005C25.4136 21.7093 24.2697 20.5993 22.8177 20.5993C21.3279 20.5993 20.2239 21.7093 20.2239 23.4005C20.2239 24.9845 21.3789 26.2016 22.8177 26.2016ZM22.8177 18.6187C25.5555 18.6187 27.5995 20.4534 27.5995 23.4005C27.5995 26.2016 25.5555 28.1823 22.8177 28.1823C20.082 28.1823 18.0381 26.3452 18.0381 23.4005C18.0381 20.7178 19.9535 18.6187 22.8177 18.6187Z" fill="#F41707"/>
</svg>
