<svg width="197" height="71" viewBox="0 0 197 71" fill="none" xmlns="http://www.w3.org/2000/svg">
<path d="M28.9614 46.0729L28.9728 46.0825C28.9737 46.0775 28.9737 46.0723 28.9728 46.0672C28.9685 46.0679 28.9645 46.0699 28.9614 46.0729ZM63.2952 55.1528H63.3048H63.2952ZM63.2952 55.1528H63.3048H63.2952ZM28.9728 46.0825C28.9737 46.0775 28.9737 46.0723 28.9728 46.0672C28.9685 46.0657 28.9638 46.0657 28.9595 46.0672L28.9728 46.0825ZM67.0833 33.1444L67.0986 33.1598V33.1425L67.0833 33.1444ZM63.3048 55.1605H63.2933H63.3048ZM28.9728 46.0825C28.9737 46.0775 28.9737 46.0723 28.9728 46.0672C28.9685 46.0657 28.9638 46.0657 28.9595 46.0672L28.9728 46.0825ZM63.2952 55.1528H63.3048H63.2952ZM63.2952 55.1528H63.3048H63.2952Z" fill="black" stroke="black" stroke-miterlimit="10"/>
<path d="M77.5591 31.3967C75.2209 28.0313 71.7805 25.0455 67.532 22.6217C60.3531 18.5353 50.8837 16.05 40.4993 16.05C35.5213 16.0365 30.5601 16.6308 25.7251 17.82C24.9062 18.0233 24.1 18.2438 23.3066 18.4816C9.53719 22.5948 0.000976562 31.4964 0.000976562 41.815C0.000976562 42.3047 0.0226266 42.7911 0.0659267 43.2743C0.616093 49.5679 4.71942 55.2575 11.1189 59.5472C14.4005 61.7076 17.9544 63.4192 21.6867 64.6365C27.3087 66.5158 33.7082 67.58 40.4993 67.58C51.7586 67.58 61.9443 64.6576 69.2837 59.9403C72.4949 57.875 75.1636 55.4665 77.135 52.8087C77.8313 51.8769 78.451 50.89 78.988 49.8575C80.0606 47.814 80.7214 45.5782 80.9327 43.2782C80.976 42.7949 80.9977 42.3085 80.9977 41.8189C80.9977 38.1064 79.7655 34.5818 77.5591 31.3967ZM65.5854 56.8357C59.8449 61.762 50.8016 64.9395 40.6311 64.9395C29.7673 64.9395 20.1909 61.3152 14.5498 55.804C11.18 52.5134 9.21435 48.5516 9.21435 44.2964C9.21435 34.8867 18.7888 26.9478 31.882 24.4568C34.7643 23.9143 37.6909 23.6434 40.6235 23.6476C51.73 23.6476 61.4916 27.4349 67.0773 33.1551H67.0926V33.1724C70.2236 36.3825 72.0403 40.2023 72.0403 44.2945C72.0479 49.0061 69.639 53.3552 65.5854 56.8357Z" fill="url(#paint0_linear_248_2256)"/>
<path d="M67.084 33.1429C66.2091 33.2145 65.3253 33.2675 64.4325 33.302C51.326 33.814 39.5203 30.3029 31.8887 24.4446C34.771 23.9021 37.6976 23.6312 40.6302 23.6354C51.7367 23.6354 61.4983 27.4207 67.084 33.1429Z" fill="url(#paint1_linear_248_2256)"/>
<path d="M72.0477 44.2967C72.0477 49.016 69.6388 53.3651 65.5851 56.8456C64.8299 56.2601 64.0703 55.7014 63.3062 55.1696C64.0053 53.0775 66.1716 45.944 67.0981 33.1765C70.231 36.3693 72.0477 40.1892 72.0477 44.2967Z" fill="url(#paint2_linear_248_2256)"/>
<path d="M65.5834 56.8364C59.843 61.7628 50.7996 64.9402 40.6292 64.9402C29.7653 64.9402 20.189 61.316 14.5479 55.8048C18.4544 52.0117 23.3352 48.6406 28.9611 46.0729L28.9725 46.0825C30.1315 46.9508 31.3396 47.7511 32.5906 48.4795C39.7963 52.6771 49.4013 55.241 59.9404 55.241C61.07 55.241 62.1882 55.2116 63.2949 55.1528H63.3044C64.0685 55.691 64.8282 56.2522 65.5834 56.8364Z" fill="url(#paint3_linear_248_2256)"/>
<path d="M31.881 24.4484C31.0156 27.53 29.4205 34.6118 28.9754 46.0676C28.9711 46.0661 28.9664 46.0661 28.962 46.0676C23.3381 48.6353 18.4554 52.0122 14.5488 55.7995C11.1791 52.5146 9.21338 48.5528 9.21338 44.2976C9.21338 34.8783 18.7878 26.9394 31.881 24.4484Z" fill="url(#paint4_linear_248_2256)"/>
<path d="M80.9967 44.7325C80.993 46.9012 80.5761 49.0492 79.7684 51.0606C79.627 51.4148 79.4754 51.7657 79.3137 52.1134C77.646 55.6706 74.8016 58.9056 71.0708 61.6363C63.6454 67.0689 52.7032 70.5033 40.506 70.5033C33.6805 70.5033 27.2485 69.4294 21.6055 67.531C17.0475 65.9969 13.0091 63.9259 9.6833 61.4503C3.64294 56.9535 0 51.1105 0 44.7325C0 44.2435 0.0210133 43.7565 0.0649502 43.2751C0.615116 49.5687 4.71844 55.2583 11.1179 59.548C14.3995 61.7085 17.9534 63.42 21.6857 64.6373C27.3077 66.5166 33.7072 67.5809 40.4983 67.5809C51.7576 67.5809 61.9434 64.6584 69.2827 59.9411C72.4939 57.8758 75.1626 55.4673 77.134 52.8095C77.8303 51.8778 78.45 50.8908 78.987 49.8583C80.0596 47.8148 80.7205 45.5791 80.9317 43.279C80.9757 43.7565 80.9967 44.2435 80.9967 44.7325Z" fill="url(#paint5_linear_248_2256)"/>
<path d="M67.0999 33.1601C66.1715 45.9276 64.0071 53.0611 63.3079 55.1532H63.2965C62.191 55.2133 61.0729 55.2427 59.942 55.2414C49.401 55.2414 39.7979 52.6775 32.5922 48.4799C31.3412 47.7516 30.1331 46.9512 28.9741 46.0829C28.9749 46.0778 28.9749 46.0726 28.9741 46.0675C29.4192 34.6137 31.0143 27.53 31.8797 24.4484C39.5113 30.3067 51.317 33.8179 64.4235 33.3059C65.315 33.2713 66.1989 33.2183 67.075 33.1467L67.0999 33.1601Z" fill="url(#paint6_linear_248_2256)"/>
<path d="M51.1003 27.0809C51.1011 27.3644 51.0684 27.6469 51.0028 27.9227C50.8997 27.9227 50.7965 27.9227 50.6915 27.9227C50.0768 27.9294 49.4638 27.8579 48.8671 27.7098C48.8231 27.4468 48.7501 27.1896 48.6494 26.9428C48.5632 26.7347 48.457 26.5356 48.3322 26.3483C48.2902 26.2793 48.2444 26.2122 48.1966 26.147C47.7994 25.6053 47.2661 25.1792 46.6512 24.9121C46.2281 24.7281 45.7747 24.6247 45.314 24.6072C46.3109 24.3404 47.2695 23.946 48.166 23.4336C48.5881 23.5269 48.9903 23.6944 49.3543 23.9283C49.8934 24.2671 50.3367 24.7392 50.6418 25.2994C50.7571 25.5087 50.8511 25.729 50.9226 25.9572C50.9341 25.9898 50.9436 26.0224 50.9532 26.0569C51.05 26.3896 51.0995 26.7343 51.1003 27.0809Z" fill="url(#paint7_linear_248_2256)"/>
<path d="M53.6272 17.5418V27.0071C53.5316 27.4884 52.416 27.872 51.0024 27.9218C51.0679 27.6461 51.1006 27.3635 51.0998 27.08C51.1003 26.7336 51.0521 26.3889 50.9566 26.056L50.926 25.9563C50.8545 25.7282 50.7605 25.5078 50.6452 25.2985C50.3401 24.7383 49.8968 24.2662 49.3576 23.9274C49.2482 23.8568 49.1346 23.7928 49.0176 23.7357C48.749 23.5985 48.464 23.4966 48.1694 23.4327C48.6753 23.1488 49.1599 22.8284 49.6193 22.4739C49.9559 22.2137 50.2785 21.9359 50.586 21.6417C50.6834 21.5477 50.777 21.4499 50.8744 21.3559L51.0769 21.1431C51.1533 21.0606 51.2297 20.9762 51.3023 20.8919C51.3749 20.8075 51.4284 20.748 51.4933 20.6752L51.5946 20.5544C51.6519 20.4853 51.7073 20.4144 51.7627 20.3434C51.8181 20.2725 51.906 20.1517 51.9747 20.0654C52.0435 19.9791 52.1123 19.8736 52.1792 19.7797C52.4336 19.4132 52.6676 19.033 52.8802 18.6406C52.9146 18.5773 52.949 18.5121 52.9815 18.4488C52.9968 18.4239 53.0101 18.3971 53.0235 18.3702C53.0369 18.3434 53.0808 18.259 53.1076 18.2015C53.1343 18.1439 53.1706 18.0711 53.2012 18.0097C53.2183 17.9733 53.2355 17.9388 53.2508 17.9023C53.2903 17.8154 53.3285 17.7291 53.3654 17.6434L53.3769 17.6185C53.461 17.584 53.5469 17.5648 53.6272 17.5418Z" fill="url(#paint8_linear_248_2256)"/>
<path d="M53.373 17.6031L53.3616 17.6281C53.3246 17.7137 53.2864 17.8 53.247 17.8869C53.2317 17.9234 53.2145 17.9579 53.1973 17.9943C53.1667 18.0595 53.1362 18.1247 53.1037 18.1861C53.0712 18.2475 53.0483 18.2992 53.0196 18.3548C52.991 18.4104 52.9929 18.4085 52.9776 18.4335C52.9451 18.4987 52.9107 18.5639 52.8764 18.6252C52.6638 19.0176 52.4297 19.3979 52.1753 19.7643C52.1084 19.8602 52.0415 19.956 51.9709 20.05C51.9002 20.144 51.8314 20.2418 51.7588 20.3281C51.6862 20.4144 51.648 20.47 51.5907 20.539L51.4895 20.6598C51.4283 20.7327 51.3672 20.8055 51.2984 20.8765C51.2297 20.9475 51.1494 21.0453 51.073 21.1277L50.8705 21.3406C50.775 21.4384 50.6795 21.5323 50.5821 21.6263C50.6058 21.4509 50.618 21.2741 50.6184 21.097C50.6184 21.0529 50.6184 21.0107 50.6184 20.9666C50.6203 20.9481 50.6203 20.9295 50.6184 20.911C50.6203 20.8791 50.6203 20.8471 50.6184 20.8151C50.6184 20.7595 50.6184 20.7039 50.6031 20.6502C50.604 20.6464 50.604 20.6425 50.6031 20.6387C50.6042 20.6298 50.6042 20.6208 50.6031 20.6119C50.6011 20.5867 50.5973 20.5617 50.5916 20.5371C50.5892 20.5068 50.5847 20.4767 50.5783 20.447L50.5668 20.3837C50.5566 20.33 50.5451 20.2763 50.5324 20.2226C50.5324 20.2034 50.5229 20.1862 50.519 20.1689L50.5076 20.1286C50.5058 20.1153 50.5019 20.1024 50.4961 20.0903C50.4866 20.0481 50.4732 20.0078 50.4598 19.9656V19.9503C50.4458 19.9043 50.4305 19.8582 50.414 19.8122C50.3968 19.7643 50.3777 19.7163 50.3567 19.6703C50.3431 19.631 50.3271 19.5926 50.3089 19.5553C50.2841 19.4977 50.2573 19.444 50.2287 19.3884C50.2 19.3328 50.158 19.2542 50.1179 19.1967C50.1088 19.1794 50.0986 19.1627 50.0873 19.1468L50.0587 19.1008C50.0375 19.0639 50.0146 19.028 49.9899 18.9934L49.9651 18.957L49.923 18.8994L49.8963 18.8649L49.8409 18.7921C49.8292 18.7752 49.8165 18.7592 49.8027 18.7441C49.7836 18.7173 49.7626 18.6923 49.7415 18.6674C49.7376 18.6625 49.7331 18.658 49.7282 18.654C49.7255 18.6486 49.7216 18.644 49.7167 18.6406L49.7053 18.6271L49.669 18.6003L49.6479 18.5773C49.6369 18.5629 49.6248 18.5495 49.6117 18.537L49.5486 18.4699C49.497 18.4162 49.4416 18.3625 49.3862 18.3127C49.6505 17.813 49.8809 17.296 50.0759 16.7651C50.1611 16.8302 50.2534 16.8856 50.3509 16.9301V17.2292C50.432 17.2892 50.5191 17.3406 50.6107 17.3826C51.1144 17.5987 51.6562 17.7109 52.2039 17.7124H52.3663C52.7046 17.7088 53.0418 17.6722 53.373 17.6031Z" fill="url(#paint9_linear_248_2256)"/>
<path d="M46.1771 2.34909C45.8848 2.32992 45.7339 2.32992 45.4359 2.32992H45.2907C45.2086 2.32992 45.1283 2.32992 45.0462 2.32992C43.3981 2.37872 41.777 2.76302 40.2813 3.45953C38.7855 4.15603 37.4463 5.15023 36.3448 6.38183C35.294 7.55373 34.4839 8.92218 33.9607 10.4088C33.8485 10.422 33.7356 10.4284 33.6226 10.428C32.8507 10.4301 32.1087 10.1286 31.5557 9.58807C31.9423 7.76509 32.7476 6.05787 33.9072 4.60229C34.4809 3.88426 35.1325 3.23272 35.85 2.65975C37.1469 1.62239 38.6424 0.863921 40.2437 0.431484L40.2934 0.416143C41.0105 0.222129 41.744 0.0956581 42.4845 0.0383738C42.8054 0.0134449 43.1244 2.15985e-05 43.4511 2.15985e-05C45.1089 -0.00310031 46.75 0.332246 48.2746 0.985673C49.4061 1.74548 50.4025 2.69057 51.2222 3.78155C51.4899 4.13957 51.7368 4.51285 51.9615 4.89952C52.0322 5.01841 52.1009 5.14113 52.1678 5.26386C52.6079 6.07238 52.9528 6.92956 53.1955 7.81812C53.4764 8.84914 53.6184 9.91329 53.6177 10.9822V17.5423C53.5375 17.5653 53.4515 17.5845 53.3636 17.6037C53.0294 17.6687 52.6897 17.7008 52.3493 17.6996H52.1869C51.5508 17.6823 50.8497 17.6823 50.3817 17.3947C50.0856 17.2029 50.1333 16.8079 50.0588 16.7523C50.0588 16.7523 50.3702 15.431 50.3339 15.4099V9.20455C50.1698 8.62423 49.9629 8.05697 49.715 7.50747C49.1838 5.92721 48.3295 4.47586 47.2067 3.24654" fill="url(#paint10_linear_248_2256)"/>
<path d="M47.2149 3.24574C47.2149 3.24574 46.85 3.19971 46.6685 3.18246L46.4106 3.16328H46.3457C46.2693 3.16328 46.1909 3.16328 46.1145 3.15177C45.9108 3.14027 45.7045 3.13452 45.4956 3.13452C43.8237 3.12916 42.1673 3.45558 40.6216 4.09501C39.0758 4.73443 37.6712 5.67425 36.4885 6.86043C35.4614 7.88957 34.621 9.09075 34.0051 10.4099H33.9517C34.4748 8.92329 35.285 7.55485 36.3357 6.38294C37.4372 5.15134 38.7765 4.15715 40.2722 3.46064C41.7679 2.76414 43.389 2.37984 45.0371 2.33104C45.1193 2.33104 45.1995 2.33104 45.2816 2.33104H45.4268C45.6779 2.32279 45.9293 2.32983 46.1795 2.35213C46.3724 2.36747 47.1423 3.14986 47.2149 3.24574Z" fill="url(#paint11_linear_248_2256)"/>
<path d="M49.9716 23.2433C49.6363 23.5366 49.2684 23.7902 48.8751 23.9988L48.302 24.2558H48.2906L40.2673 27.857L40.2348 27.8705C39.421 28.2233 38.5748 28.1485 38.1068 27.6097C37.4821 26.8848 37.7725 25.6039 38.7524 24.7333L39.0027 24.5415L45.8492 19.0591L46.833 18.2728C48.4262 17.2623 50.2524 17.2297 51.1732 18.2959C52.2353 19.5231 51.6966 21.738 49.9716 23.2433Z" fill="url(#paint12_linear_248_2256)"/>
<path d="M49.5477 23.1354C49.213 23.4296 48.845 23.6832 48.4512 23.891L47.8781 24.1479H47.8685L39.8453 27.7492L39.8128 27.7645C38.999 28.1174 38.1508 28.0407 37.6847 27.5018C37.0582 26.7789 37.3485 25.4979 38.3304 24.6254L38.5807 24.4336L45.4367 18.9512L46.4186 18.165C48.0137 17.1525 49.84 17.1218 50.7607 18.1861C51.8114 19.4153 51.2727 21.6301 49.5477 23.1354Z" fill="url(#paint13_linear_248_2256)"/>
<path d="M95.8701 34.3686V19.6198C95.8701 19.2949 95.974 19.0216 96.1818 18.7997C96.3897 18.5779 96.6437 18.4669 96.9439 18.4669H101.643C101.943 18.4669 102.228 18.5779 102.497 18.7997C102.767 19.0216 102.948 19.287 103.04 19.596L106.446 29.7455L109.852 19.596C109.944 19.287 110.125 19.0216 110.394 18.7997C110.664 18.5779 110.949 18.4669 111.249 18.4669H115.948C116.248 18.4669 116.498 18.5779 116.698 18.7997C116.906 19.0216 117.01 19.2949 117.01 19.6198V34.3686C117.01 34.6935 116.902 34.9668 116.687 35.1887C116.479 35.4026 116.225 35.5096 115.925 35.5096H113.847C113.546 35.5096 113.289 35.4026 113.073 35.1887C112.865 34.9668 112.761 34.6935 112.761 34.3686V22.7573L108.686 34.4399C108.578 34.7331 108.389 34.9866 108.12 35.2006C107.851 35.4066 107.566 35.5096 107.266 35.5096H105.615C105.314 35.5096 105.03 35.4066 104.76 35.2006C104.499 34.9866 104.31 34.7331 104.194 34.4399L100.13 22.7573V34.3686C100.13 34.6935 100.023 34.9668 99.8072 35.1887C99.5993 35.4026 99.3453 35.5096 99.0452 35.5096H96.9669C96.6668 35.5096 96.4089 35.4026 96.1934 35.1887C95.9779 34.9668 95.8701 34.6935 95.8701 34.3686Z" fill="#3A405A"/>
<path d="M121.744 33.7506C120.166 32.3245 119.377 30.0703 119.377 26.9883C119.377 23.9062 120.166 21.656 121.744 20.2378C123.322 18.8195 125.631 18.1104 128.671 18.1104C131.719 18.1104 134.028 18.8195 135.599 20.2378C137.176 21.656 137.965 23.9062 137.965 26.9883C137.965 30.0703 137.176 32.3245 135.599 33.7506C134.028 35.1689 131.719 35.878 128.671 35.878C125.631 35.878 123.322 35.1689 121.744 33.7506ZM124.896 22.7454C124.118 23.6962 123.73 25.1144 123.73 27.0001C123.73 28.8779 124.118 30.2922 124.896 31.243C125.681 32.1858 126.939 32.6572 128.671 32.6572C130.411 32.6572 131.669 32.1858 132.447 31.243C133.224 30.2922 133.613 28.8779 133.613 27.0001C133.613 25.1144 133.224 23.6962 132.447 22.7454C131.669 21.7947 130.411 21.3193 128.671 21.3193C126.939 21.3193 125.681 21.7947 124.896 22.7454Z" fill="#3A405A"/>
<path d="M140.321 34.3924V19.596C140.321 19.2711 140.425 19.0018 140.632 18.7878C140.84 18.5739 141.102 18.4669 141.418 18.4669H143.45C143.75 18.4669 144.004 18.5739 144.212 18.7878C144.427 19.0018 144.535 19.2632 144.535 19.5722V31.4688L151.104 19.596C151.281 19.287 151.524 19.0216 151.832 18.7997C152.14 18.5779 152.424 18.4669 152.686 18.4669H156.092C156.392 18.4669 156.646 18.5779 156.854 18.7997C157.062 19.0216 157.166 19.287 157.166 19.596V34.3924C157.166 34.7014 157.058 34.9668 156.842 35.1887C156.627 35.4026 156.369 35.5096 156.069 35.5096H154.037C153.737 35.5096 153.479 35.4026 153.263 35.1887C153.055 34.9668 152.952 34.7014 152.952 34.3924V23.3634L146.925 34.3924C146.748 34.7014 146.498 34.9668 146.174 35.1887C145.851 35.4026 145.539 35.5096 145.239 35.5096H141.418C141.117 35.5096 140.859 35.4026 140.644 35.1887C140.428 34.9668 140.321 34.7014 140.321 34.3924ZM144.87 13.6061C144.87 13.202 145.081 13 145.505 13H146.451C146.829 13 147.094 13.202 147.248 13.6061C147.471 14.1766 147.968 14.4618 148.737 14.4618C149.515 14.4539 150.011 14.1687 150.227 13.6061C150.381 13.202 150.65 13 151.035 13H151.982C152.405 13 152.617 13.202 152.617 13.6061C152.617 14.6916 152.263 15.5512 151.555 16.1851C150.846 16.8189 149.907 17.1359 148.737 17.1359C147.575 17.1359 146.64 16.8189 145.932 16.1851C145.224 15.5512 144.87 14.6916 144.87 13.6061Z" fill="#3A405A"/>
<path d="M160.456 34.3686V19.596C160.456 19.287 160.564 19.0176 160.779 18.7878C160.995 18.5581 161.253 18.4432 161.553 18.4432H163.724C164.024 18.4432 164.278 18.5581 164.486 18.7878C164.701 19.0176 164.809 19.287 164.809 19.596V25.2887H167.291C167.969 25.2887 168.561 25.0986 169.069 24.7183C169.585 24.338 170.074 23.7239 170.536 22.8762L172.325 19.596C172.733 18.8354 173.287 18.4511 173.988 18.4432H176.655C176.955 18.4432 177.132 18.5541 177.186 18.7759C177.201 18.8314 177.209 18.8869 177.209 18.9423C177.209 19.1246 177.143 19.3425 177.013 19.596L174.507 24.2667C174.145 24.9481 173.738 25.5106 173.283 25.9543C172.837 26.398 172.252 26.7109 171.528 26.8932C172.036 27.0041 172.556 27.3329 173.087 27.8796C173.626 28.4263 174.099 29.0205 174.507 29.6623L177.394 34.3924C177.524 34.6222 177.59 34.8203 177.59 34.9866C177.59 35.0579 177.578 35.1253 177.555 35.1887C177.478 35.4026 177.29 35.5096 176.99 35.5096H174.346C174.045 35.5096 173.722 35.4026 173.376 35.1887C173.029 34.9668 172.76 34.7014 172.568 34.3924L170.536 31.0766C170.051 30.2684 169.562 29.6623 169.069 29.2582C168.577 28.8462 167.984 28.6402 167.291 28.6402H164.809V34.4162C164.809 34.7252 164.701 34.9866 164.486 35.2006C164.278 35.4066 164.024 35.5096 163.724 35.5096H161.553C161.253 35.5096 160.995 35.3986 160.779 35.1768C160.564 34.947 160.456 34.6776 160.456 34.3686Z" fill="#3A405A"/>
<path d="M179.252 34.3924V19.596C179.252 19.2711 179.356 19.0018 179.564 18.7878C179.772 18.5739 180.034 18.4669 180.349 18.4669H182.381C182.682 18.4669 182.936 18.5739 183.143 18.7878C183.359 19.0018 183.467 19.2632 183.467 19.5722V31.4688L190.036 19.596C190.213 19.287 190.456 19.0216 190.763 18.7997C191.071 18.5779 191.356 18.4669 191.618 18.4669H195.024C195.324 18.4669 195.578 18.5779 195.786 18.7997C195.994 19.0216 196.097 19.287 196.097 19.596V34.3924C196.097 34.7014 195.99 34.9668 195.774 35.1887C195.559 35.4026 195.301 35.5096 195.001 35.5096H192.969C192.668 35.5096 192.411 35.4026 192.195 35.1887C191.987 34.9668 191.883 34.7014 191.883 34.3924V23.3634L185.857 34.3924C185.68 34.7014 185.429 34.9668 185.106 35.1887C184.783 35.4026 184.471 35.5096 184.171 35.5096H180.349C180.049 35.5096 179.791 35.4026 179.576 35.1887C179.36 34.9668 179.252 34.7014 179.252 34.3924Z" fill="#3A405A"/>
<path d="M98.0009 56.2747C96.667 55.054 96 53.1678 96 50.6161C96 48.0574 96.667 46.1678 98.0009 44.9471C99.342 43.7195 101.35 43.1057 104.025 43.1057H106.437C108.074 43.1057 109.519 43.5126 110.774 44.3264C112.036 45.1402 112.667 46.254 112.667 47.6678C112.667 48.0747 112.54 48.3678 112.288 48.5471C112.036 48.7195 111.791 48.8057 111.553 48.8057H110.266C109.602 48.8057 109.087 48.4264 108.719 47.6678C108.185 46.5781 107.299 46.0333 106.058 46.0333H104.133C102.554 46.0333 101.483 46.3574 100.921 47.0057C100.359 47.654 100.077 48.854 100.077 50.6057C100.077 52.3574 100.359 53.5609 100.921 54.2161C101.483 54.8643 102.554 55.1885 104.133 55.1885H106.286C107.526 55.1885 108.409 54.6436 108.935 53.554C109.303 52.7885 109.822 52.4057 110.493 52.4057H111.78C111.91 52.4057 112.047 52.4333 112.191 52.4885C112.342 52.5367 112.494 52.6574 112.645 52.8505C112.804 53.0367 112.883 53.2712 112.883 53.554C112.883 54.9678 112.256 56.0816 111.001 56.8954C109.746 57.7023 108.301 58.1057 106.664 58.1057H104.025C101.35 58.1057 99.342 57.4954 98.0009 56.2747Z" fill="#3A405A"/>
<path d="M113.759 44.1712C113.701 44.0402 113.669 43.9161 113.662 43.7988C113.662 43.6816 113.694 43.5747 113.759 43.4781C113.874 43.285 114.073 43.1885 114.354 43.1885H116.636C117.328 43.1885 117.808 43.5023 118.074 44.1299L119.318 47.0057C119.686 47.8402 120.147 48.4643 120.703 48.8781C121.258 49.285 121.99 49.4885 122.898 49.4885H124.228L126.186 44.1505C126.287 43.854 126.464 43.6195 126.716 43.4471C126.968 43.2747 127.242 43.1885 127.538 43.1885H129.723C130.004 43.1885 130.213 43.2816 130.35 43.4678C130.429 43.5781 130.469 43.7023 130.469 43.8402C130.469 43.9299 130.451 44.0264 130.415 44.1299L126.889 53.7816C126.399 55.1402 125.66 56.1885 124.672 56.9264C123.684 57.6574 122.303 58.023 120.53 58.023H117.923C117.642 58.023 117.4 57.9299 117.198 57.7436C116.996 57.5505 116.896 57.3195 116.896 57.0505V55.8816C116.896 55.6126 116.993 55.385 117.188 55.1988C117.382 55.0057 117.627 54.9092 117.923 54.9092H118.269C118.464 54.9092 118.759 54.9402 119.156 55.0023C119.56 55.0643 119.87 55.0954 120.086 55.0954H120.313C121.748 55.0954 122.729 54.1988 123.255 52.4057H122.325C120.508 52.4057 119.091 52.054 118.074 51.3505C117.058 50.6402 116.185 49.4885 115.457 47.8954L113.759 44.1712Z" fill="#3A405A"/>
<path d="M132.254 57.0505V44.1712C132.254 43.9023 132.351 43.6712 132.546 43.4781C132.74 43.285 132.978 43.1885 133.259 43.1885H141.512C145.867 43.1885 148.044 45.1126 148.044 48.9609C148.051 52.8023 145.874 54.723 141.512 54.723H136.331V57.0505C136.331 57.3195 136.23 57.5505 136.028 57.7436C135.833 57.9299 135.596 58.023 135.314 58.023H133.281C133 58.023 132.758 57.9299 132.556 57.7436C132.354 57.5505 132.254 57.3195 132.254 57.0505ZM136.331 51.7954H140.279C141.49 51.7954 142.409 51.6023 143.037 51.2161C143.664 50.823 143.978 50.0712 143.978 48.9609C143.978 47.8436 143.664 47.0919 143.037 46.7057C142.409 46.3126 141.49 46.1161 140.279 46.1161H136.331V51.7954Z" fill="#3A405A"/>
<path d="M150.034 57.0712V44.1712C150.034 43.8885 150.132 43.654 150.326 43.4678C150.521 43.2816 150.766 43.1885 151.062 43.1885H161.509C161.805 43.1885 162.047 43.2816 162.234 43.4678C162.429 43.654 162.526 43.8885 162.526 44.1712V45.1436C162.526 45.4264 162.429 45.6609 162.234 45.8471C162.047 46.0264 161.805 46.1161 161.509 46.1161H154.112V57.0712C154.112 57.3402 154.011 57.5678 153.809 57.754C153.614 57.9333 153.376 58.023 153.095 58.023H151.062C150.78 58.023 150.539 57.9333 150.337 57.754C150.135 57.5678 150.034 57.3402 150.034 57.0712Z" fill="#3A405A"/>
<path d="M163.056 44.1712C162.998 44.0402 162.966 43.9161 162.959 43.7988C162.959 43.6816 162.991 43.5747 163.056 43.4781C163.171 43.285 163.37 43.1885 163.651 43.1885H165.933C166.625 43.1885 167.105 43.5023 167.371 44.1299L168.615 47.0057C168.983 47.8402 169.444 48.4643 170 48.8781C170.555 49.285 171.287 49.4885 172.195 49.4885H173.525L175.483 44.1505C175.584 43.854 175.761 43.6195 176.013 43.4471C176.265 43.2747 176.539 43.1885 176.835 43.1885H179.02C179.301 43.1885 179.51 43.2816 179.647 43.4678C179.726 43.5781 179.766 43.7023 179.766 43.8402C179.766 43.9299 179.748 44.0264 179.712 44.1299L176.186 53.7816C175.696 55.1402 174.957 56.1885 173.969 56.9264C172.981 57.6574 171.6 58.023 169.827 58.023H167.22C166.939 58.023 166.697 57.9299 166.495 57.7436C166.293 57.5505 166.193 57.3195 166.193 57.0505V55.8816C166.193 55.6126 166.29 55.385 166.485 55.1988C166.679 55.0057 166.924 54.9092 167.22 54.9092H167.566C167.761 54.9092 168.056 54.9402 168.453 55.0023C168.857 55.0643 169.167 55.0954 169.383 55.0954H169.61C171.045 55.0954 172.026 54.1988 172.552 52.4057H171.622C169.805 52.4057 168.388 52.054 167.371 51.3505C166.355 50.6402 165.482 49.4885 164.754 47.8954L163.056 44.1712Z" fill="#3A405A"/>
<path d="M180.22 45.1436V44.1712C180.22 43.8885 180.318 43.654 180.512 43.4678C180.707 43.2816 180.952 43.1885 181.248 43.1885H194.973C195.268 43.1885 195.513 43.2816 195.708 43.4678C195.903 43.654 196 43.8885 196 44.1712V45.1436C196 45.4264 195.903 45.6609 195.708 45.8471C195.513 46.0264 195.268 46.1161 194.973 46.1161H190.149V57.0712C190.149 57.3402 190.048 57.5678 189.846 57.754C189.651 57.9333 189.413 58.023 189.132 58.023H187.088C186.807 58.023 186.565 57.9333 186.363 57.754C186.169 57.5678 186.071 57.3402 186.071 57.0712V46.1161H181.248C180.952 46.1161 180.707 46.0264 180.512 45.8471C180.318 45.6609 180.22 45.4264 180.22 45.1436Z" fill="#3A405A"/>
<defs>
<linearGradient id="paint0_linear_248_2256" x1="10.2994" y1="64.0037" x2="69.8333" y2="20.5987" gradientUnits="userSpaceOnUse">
<stop stop-color="#003DEE"/>
<stop offset="0.03" stop-color="#00CBFB"/>
<stop offset="0.99" stop-color="#2E71F2"/>
</linearGradient>
<linearGradient id="paint1_linear_248_2256" x1="35.9557" y1="52.7178" x2="51.461" y2="25.5099" gradientUnits="userSpaceOnUse">
<stop offset="0.49" stop-color="#0C42DD"/>
<stop offset="1" stop-color="#2B7EF3"/>
</linearGradient>
<linearGradient id="paint2_linear_248_2256" x1="68.7983" y1="34.515" x2="66.9311" y2="60.0585" gradientUnits="userSpaceOnUse">
<stop stop-color="#2F76F3"/>
<stop offset="0.63" stop-color="#0548F1"/>
<stop offset="1" stop-color="#002BAB"/>
</linearGradient>
<linearGradient id="paint3_linear_248_2256" x1="16.6855" y1="91.8999" x2="44.9377" y2="49.2345" gradientUnits="userSpaceOnUse">
<stop stop-color="#17ACF8"/>
<stop offset="0.17" stop-color="#002BAB"/>
<stop offset="1" stop-color="#002BAB"/>
</linearGradient>
<linearGradient id="paint4_linear_248_2256" x1="20.465" y1="25.9844" x2="20.7519" y2="54.9384" gradientUnits="userSpaceOnUse">
<stop offset="0.08" stop-color="#17ACF8"/>
<stop offset="0.63" stop-color="#0548F1"/>
<stop offset="1" stop-color="#002BAB"/>
</linearGradient>
<linearGradient id="paint5_linear_248_2256" x1="39.8316" y1="66.1465" x2="39.5737" y2="74.3768" gradientUnits="userSpaceOnUse">
<stop offset="0.06" stop-color="#3172F2"/>
<stop offset="0.63" stop-color="#003DEE"/>
<stop offset="1" stop-color="#00CBFB"/>
</linearGradient>
<linearGradient id="paint6_linear_248_2256" x1="50.0046" y1="31.0623" x2="42.9169" y2="56.9381" gradientUnits="userSpaceOnUse">
<stop stop-color="#17ACF8"/>
<stop offset="0.64" stop-color="#0548F1"/>
<stop offset="1" stop-color="#002BAB"/>
</linearGradient>
<linearGradient id="paint7_linear_248_2256" x1="47.1192" y1="23.7212" x2="53.8294" y2="33.0472" gradientUnits="userSpaceOnUse">
<stop offset="0.01" stop-color="#052BAC"/>
<stop offset="0.12" stop-color="#072EAF"/>
<stop offset="0.95" stop-color="#307AF3"/>
</linearGradient>
<linearGradient id="paint8_linear_248_2256" x1="49.7836" y1="28.359" x2="54.0187" y2="16.5396" gradientUnits="userSpaceOnUse">
<stop offset="0.01" stop-color="#052BAC"/>
<stop offset="0.1" stop-color="#072EAF"/>
<stop offset="0.95" stop-color="#307AF3"/>
</linearGradient>
<linearGradient id="paint9_linear_248_2256" x1="1084.64" y1="543.665" x2="1148.35" y2="457.731" gradientUnits="userSpaceOnUse">
<stop offset="0.01" stop-color="#052BAC"/>
<stop offset="0.1" stop-color="#072EAF"/>
<stop offset="0.95" stop-color="#307AF3"/>
</linearGradient>
<linearGradient id="paint10_linear_248_2256" x1="39.3573" y1="4.3645" x2="50.3271" y2="16.6761" gradientUnits="userSpaceOnUse">
<stop stop-color="#00FAFF"/>
<stop offset="0.78" stop-color="#2C7BF3"/>
</linearGradient>
<linearGradient id="paint11_linear_248_2256" x1="33.8772" y1="6.49608" x2="48.363" y2="6.1916" gradientUnits="userSpaceOnUse">
<stop stop-color="#0528AD"/>
<stop offset="0.56" stop-color="#00C3FA"/>
<stop offset="1" stop-color="#05D0FC"/>
</linearGradient>
<linearGradient id="paint12_linear_248_2256" x1="38.4372" y1="28.091" x2="51.4216" y2="18.625" gradientUnits="userSpaceOnUse">
<stop offset="0.01" stop-color="#052BAC"/>
<stop offset="0.76" stop-color="#072EAF"/>
</linearGradient>
<linearGradient id="paint13_linear_248_2256" x1="38.3445" y1="27.7223" x2="51.4492" y2="19.0546" gradientUnits="userSpaceOnUse">
<stop stop-color="#00FAFF"/>
<stop offset="0.88" stop-color="#307AF3"/>
</linearGradient>
</defs>
</svg>
