<svg width="39" height="34" viewBox="0 0 39 34" fill="none" xmlns="http://www.w3.org/2000/svg">
<path d="M13.9072 22.1225L13.9127 22.1271C13.9131 22.1247 13.9131 22.1222 13.9127 22.1198C13.9106 22.1201 13.9087 22.1211 13.9072 22.1225ZM30.393 26.4824H30.3976H30.393ZM30.393 26.4824H30.3976H30.393ZM13.9127 22.1271C13.9131 22.1247 13.9131 22.1222 13.9127 22.1198C13.9106 22.1191 13.9083 22.1191 13.9062 22.1198L13.9127 22.1271ZM32.2119 15.9147L32.2193 15.9221V15.9138L32.2119 15.9147ZM30.3976 26.486H30.3921H30.3976ZM13.9127 22.1271C13.9131 22.1247 13.9131 22.1222 13.9127 22.1198C13.9106 22.1191 13.9083 22.1191 13.9062 22.1198L13.9127 22.1271ZM30.393 26.4824H30.3976H30.393ZM30.393 26.4824H30.3976H30.393Z" fill="black" stroke="black" stroke-miterlimit="10"/>
<path d="M37.2406 15.0755C36.1179 13.4595 34.4659 12.0259 32.4259 10.862C28.9789 8.89987 24.432 7.70656 19.4458 7.70656C17.0555 7.70005 14.6734 7.98543 12.3518 8.55643C11.9586 8.65403 11.5715 8.75992 11.1905 8.87409C4.57894 10.8491 0 15.1233 0 20.078C0 20.3131 0.0103956 20.5466 0.0311867 20.7787C0.295356 23.8006 2.26562 26.5325 5.33843 28.5923C6.91411 29.6297 8.62057 30.4515 10.4127 31.036C13.1122 31.9384 16.185 32.4494 19.4458 32.4494C24.8521 32.4494 29.7429 31.0461 33.267 28.7811C34.8089 27.7894 36.0903 26.6329 37.0369 25.3567C37.3713 24.9093 37.6688 24.4354 37.9267 23.9397C38.4417 22.9584 38.759 21.8849 38.8604 20.7805C38.8812 20.5485 38.8916 20.3149 38.8916 20.0798C38.8916 18.2972 38.3 16.6048 37.2406 15.0755ZM31.4912 27.2903C28.7349 29.6558 24.3926 31.1815 19.5091 31.1815C14.2927 31.1815 9.69447 29.4412 6.98582 26.795C5.36778 25.2149 4.42392 23.3126 4.42392 21.2694C4.42392 16.7512 9.02121 12.9393 15.3081 11.7432C16.6921 11.4827 18.0973 11.3526 19.5054 11.3546C24.8384 11.3546 29.5255 13.1731 32.2076 15.9198H32.2149V15.9281C33.7183 17.4694 34.5906 19.3036 34.5906 21.2685C34.5943 23.5308 33.4376 25.6191 31.4912 27.2903Z" fill="url(#paint0_linear_421_1118)"/>
<path d="M32.212 15.9138C31.7919 15.9482 31.3675 15.9736 30.9389 15.9902C24.6456 16.2361 18.9769 14.5501 15.3125 11.7372C16.6965 11.4767 18.1017 11.3466 19.5099 11.3486C24.8428 11.3486 29.53 13.1662 32.212 15.9138Z" fill="url(#paint1_linear_421_1118)"/>
<path d="M34.5938 21.2694C34.5938 23.5354 33.4372 25.6237 31.4908 27.2949C31.1281 27.0138 30.7634 26.7455 30.3965 26.4902C30.7322 25.4856 31.7724 22.0604 32.2172 15.9299C33.7215 17.463 34.5938 19.2971 34.5938 21.2694Z" fill="url(#paint2_linear_421_1118)"/>
<path d="M31.4898 27.2906C28.7334 29.6561 24.3911 31.1818 19.5077 31.1818C14.2912 31.1818 9.69303 29.4415 6.98438 26.7952C8.86016 24.974 11.2038 23.3553 13.9051 22.1223L13.9106 22.1269C14.4671 22.5439 15.0471 22.9282 15.6479 23.2779C19.1077 25.2935 23.7197 26.5245 28.7802 26.5245C29.3226 26.5245 29.8595 26.5104 30.3909 26.4822H30.3955C30.7624 26.7406 31.1272 27.0101 31.4898 27.2906Z" fill="url(#paint3_linear_421_1118)"/>
<path d="M15.3099 11.7393C14.8944 13.219 14.1285 16.6194 13.9148 22.12C13.9127 22.1193 13.9105 22.1193 13.9084 22.12C11.208 23.3529 8.86346 24.9744 6.98768 26.7929C5.36964 25.2156 4.42578 23.3133 4.42578 21.2701C4.42578 16.7473 9.02307 12.9354 15.3099 11.7393Z" fill="url(#paint4_linear_421_1118)"/>
<path d="M38.8916 21.4787C38.8899 22.5201 38.6897 23.5515 38.3018 24.5173C38.234 24.6873 38.1612 24.8558 38.0835 25.0228C37.2828 26.7308 35.917 28.2841 34.1256 29.5953C30.5602 32.2038 25.3062 33.8529 19.4495 33.8529C16.1721 33.8529 13.0837 33.3373 10.3742 32.4257C8.18559 31.6891 6.24651 30.6947 4.64957 29.506C1.74921 27.3468 0 24.5412 0 21.4787C0 21.2439 0.0100898 21.0101 0.0311867 20.779C0.295356 23.8009 2.26562 26.5328 5.33843 28.5926C6.91411 29.63 8.62057 30.4518 10.4127 31.0363C13.1122 31.9387 16.185 32.4497 19.4458 32.4497C24.8521 32.4497 29.7429 31.0464 33.267 28.7813C34.8089 27.7897 36.0903 26.6332 37.0369 25.357C37.3713 24.9096 37.6688 24.4357 37.9267 23.94C38.4417 22.9587 38.759 21.8852 38.8604 20.7808C38.8815 21.0101 38.8916 21.2439 38.8916 21.4787Z" fill="url(#paint5_linear_421_1118)"/>
<path d="M32.2187 15.9223C31.7729 22.0528 30.7337 25.478 30.3979 26.4826H30.3924C29.8617 26.5114 29.3248 26.5256 28.7817 26.5249C23.7203 26.5249 19.1093 25.2939 15.6494 23.2783C15.0487 22.9286 14.4686 22.5443 13.9121 22.1274C13.9125 22.1249 13.9125 22.1224 13.9121 22.12C14.1258 16.6203 14.8917 13.219 15.3073 11.7393C18.9717 14.5522 24.6403 16.2381 30.9336 15.9923C31.3617 15.9757 31.7861 15.9503 32.2068 15.9159L32.2187 15.9223Z" fill="url(#paint6_linear_421_1118)"/>
<path d="M24.5381 13.0034C24.5385 13.1395 24.5228 13.2752 24.4914 13.4076C24.4418 13.4076 24.3923 13.4076 24.3418 13.4076C24.0467 13.4108 23.7524 13.3765 23.4659 13.3054C23.4447 13.1791 23.4097 13.0556 23.3613 12.9371C23.3199 12.8372 23.2689 12.7416 23.209 12.6516C23.1889 12.6185 23.1668 12.5863 23.1439 12.555C22.9532 12.2949 22.6971 12.0902 22.4018 11.962C22.1987 11.8736 21.981 11.824 21.7598 11.8156C22.2384 11.6875 22.6987 11.4981 23.1292 11.2521C23.3319 11.2969 23.525 11.3773 23.6998 11.4896C23.9586 11.6523 24.1715 11.879 24.318 12.148C24.3733 12.2485 24.4185 12.3543 24.4528 12.4638C24.4583 12.4795 24.4629 12.4951 24.4675 12.5117C24.514 12.6714 24.5378 12.8369 24.5381 13.0034Z" fill="url(#paint7_linear_421_1118)"/>
<path d="M25.7515 8.42297V12.9679C25.7056 13.199 25.1699 13.3831 24.4911 13.4071C24.5226 13.2747 24.5383 13.139 24.5379 13.0029C24.5382 12.8365 24.515 12.671 24.4691 12.5112L24.4545 12.4633C24.4201 12.3538 24.375 12.248 24.3196 12.1475C24.1731 11.8785 23.9603 11.6518 23.7014 11.4891C23.6488 11.4552 23.5943 11.4245 23.5381 11.397C23.4092 11.3312 23.2723 11.2823 23.1309 11.2516C23.3737 11.1153 23.6064 10.9614 23.8271 10.7912C23.9887 10.6663 24.1436 10.5329 24.2912 10.3916C24.338 10.3465 24.3829 10.2995 24.4297 10.2544L24.5269 10.1522C24.5636 10.1126 24.6003 10.0721 24.6352 10.0316C24.67 9.99104 24.6957 9.96249 24.7269 9.9275L24.7755 9.8695C24.803 9.83635 24.8296 9.80228 24.8562 9.76821C24.8828 9.73414 24.925 9.67613 24.958 9.6347C24.9911 9.59327 25.0241 9.54262 25.0562 9.49751C25.1784 9.32157 25.2907 9.13897 25.3928 8.95057C25.4093 8.92019 25.4258 8.88888 25.4414 8.8585C25.4488 8.84653 25.4552 8.83363 25.4616 8.82074C25.468 8.80785 25.4891 8.76734 25.502 8.73972C25.5148 8.71209 25.5322 8.6771 25.5469 8.64764C25.5552 8.63015 25.5634 8.61357 25.5708 8.59608C25.5897 8.55434 25.6081 8.5129 25.6258 8.47177L25.6313 8.4598C25.6717 8.44323 25.7129 8.43402 25.7515 8.42297Z" fill="url(#paint8_linear_421_1118)"/>
<path d="M25.6292 8.45224L25.6237 8.46421C25.6059 8.50534 25.5876 8.54677 25.5686 8.58851C25.5613 8.60601 25.553 8.62258 25.5448 8.64008C25.5301 8.67138 25.5154 8.70269 25.4998 8.73215C25.4842 8.76162 25.4732 8.78648 25.4595 8.81318C25.4457 8.83988 25.4466 8.83896 25.4393 8.85093C25.4237 8.88224 25.4072 8.91355 25.3907 8.94301C25.2886 9.13141 25.1762 9.314 25.054 9.48995C25.0219 9.53598 24.9898 9.58202 24.9559 9.62714C24.922 9.67226 24.8889 9.71922 24.8541 9.76065C24.8192 9.80209 24.8009 9.82879 24.7734 9.86194L24.7247 9.91994C24.6954 9.95493 24.666 9.98992 24.633 10.024C24.6 10.0581 24.5615 10.105 24.5248 10.1446L24.4276 10.2468C24.3817 10.2938 24.3358 10.3389 24.289 10.384C24.3005 10.2998 24.3063 10.2149 24.3065 10.1299C24.3065 10.1087 24.3065 10.0884 24.3065 10.0673C24.3074 10.0584 24.3074 10.0494 24.3065 10.0406C24.3074 10.0252 24.3074 10.0099 24.3065 9.99453C24.3065 9.96783 24.3065 9.94112 24.2991 9.91534C24.2996 9.91352 24.2996 9.91163 24.2991 9.90982C24.2996 9.90553 24.2996 9.90121 24.2991 9.89693C24.2982 9.88483 24.2964 9.87283 24.2936 9.86102C24.2925 9.84646 24.2903 9.832 24.2872 9.81774L24.2817 9.78735C24.2768 9.76157 24.2713 9.73579 24.2652 9.71001C24.2652 9.7008 24.2606 9.69252 24.2588 9.68423L24.2533 9.66489C24.2524 9.6585 24.2506 9.65228 24.2478 9.64648C24.2432 9.62622 24.2368 9.60688 24.2303 9.58663V9.57926C24.2236 9.55716 24.2163 9.53506 24.2083 9.51297C24.2001 9.48995 24.1909 9.46693 24.1808 9.44483C24.1743 9.42597 24.1666 9.40752 24.1579 9.38958C24.146 9.36196 24.1331 9.33618 24.1194 9.30948C24.1056 9.28277 24.0854 9.24502 24.0662 9.2174C24.0618 9.2091 24.0569 9.2011 24.0515 9.19346L24.0377 9.17136C24.0276 9.15363 24.0166 9.13642 24.0047 9.1198L23.9928 9.1023L23.9726 9.07468L23.9598 9.05811L23.9332 9.02312C23.9275 9.01505 23.9214 9.00736 23.9148 9.0001C23.9056 8.98721 23.8955 8.97524 23.8855 8.96327C23.8836 8.96089 23.8814 8.95873 23.879 8.95682C23.8778 8.95425 23.8759 8.95204 23.8735 8.95038L23.868 8.94393L23.8506 8.93104L23.8405 8.91999C23.8352 8.9131 23.8294 8.90663 23.8231 8.90065L23.7928 8.86843C23.768 8.84265 23.7414 8.81687 23.7148 8.79293C23.8418 8.553 23.9524 8.30475 24.046 8.04987C24.0869 8.08113 24.1312 8.10769 24.1781 8.12905V8.27269C24.217 8.30151 24.2588 8.3262 24.3028 8.34635C24.5446 8.45013 24.8048 8.50399 25.0678 8.50473H25.1458C25.3082 8.50297 25.4701 8.48539 25.6292 8.45224Z" fill="url(#paint9_linear_421_1118)"/>
<path d="M22.173 1.12795C22.0327 1.11874 21.9602 1.11874 21.8171 1.11874H21.7474C21.708 1.11874 21.6694 1.11874 21.63 1.11874C20.8386 1.14217 20.0603 1.3267 19.3421 1.66114C18.6239 1.99557 17.9808 2.47295 17.4519 3.06432C16.9474 3.62703 16.5584 4.2841 16.3072 4.99793C16.2533 5.00426 16.1991 5.00734 16.1448 5.00714C15.7742 5.00816 15.4179 4.86338 15.1523 4.60384C15.338 3.72851 15.7246 2.90877 16.2815 2.20985C16.5569 1.86508 16.8698 1.55223 17.2143 1.27711C17.837 0.779014 18.5551 0.414823 19.324 0.207183L19.3479 0.199817C19.6922 0.106658 20.0444 0.0459315 20.4 0.0184257C20.5541 0.00645573 20.7072 1.03708e-05 20.8641 1.03708e-05C21.6601 -0.00148866 22.4481 0.159532 23.1802 0.473284C23.7235 0.838117 24.2019 1.29192 24.5955 1.81576C24.724 1.98767 24.8426 2.16691 24.9505 2.35257C24.9844 2.40966 25.0174 2.46858 25.0495 2.52751C25.2609 2.91573 25.4265 3.32732 25.543 3.75397C25.6779 4.24903 25.7461 4.76 25.7457 5.27324V8.42318C25.7072 8.43423 25.6659 8.44344 25.6237 8.45264C25.4633 8.48387 25.3001 8.49929 25.1367 8.49868H25.0587C24.7533 8.4904 24.4166 8.4904 24.1919 8.35228C24.0497 8.2602 24.0727 8.07053 24.0369 8.04382C24.0369 8.04382 24.1864 7.40942 24.169 7.39929V4.41969C24.0902 4.14104 23.9908 3.86866 23.8718 3.60481C23.6167 2.84603 23.2065 2.14914 22.6674 1.55887" fill="url(#paint10_linear_421_1118)"/>
<path d="M22.6712 1.55839C22.6712 1.55839 22.496 1.53629 22.4089 1.52801L22.2851 1.5188H22.2539C22.2172 1.5188 22.1796 1.5188 22.1429 1.51328C22.0451 1.50775 21.946 1.50499 21.8457 1.50499C21.0429 1.50242 20.2476 1.65915 19.5054 1.96618C18.7632 2.27321 18.0887 2.72448 17.5208 3.29404C17.0276 3.78819 16.6241 4.36496 16.3284 4.99837H16.3027C16.5539 4.28455 16.9429 3.62747 17.4475 3.06477C17.9764 2.4734 18.6194 1.99602 19.3376 1.66158C20.0558 1.32715 20.8342 1.14262 21.6256 1.11919C21.665 1.11919 21.7035 1.11919 21.743 1.11919H21.8127C21.9332 1.11523 22.0539 1.11861 22.1741 1.12932C22.2667 1.13668 22.6364 1.51235 22.6712 1.55839Z" fill="url(#paint11_linear_421_1118)"/>
<path d="M23.9998 11.1607C23.8388 11.3015 23.6621 11.4233 23.4733 11.5234L23.1981 11.6468H23.1926L19.3401 13.376L19.3245 13.3825C18.9338 13.5519 18.5274 13.516 18.3027 13.2572C18.0028 12.9092 18.1422 12.2941 18.6127 11.8761L18.7329 11.784L22.0203 9.15155L22.4927 8.77403C23.2577 8.28879 24.1346 8.27314 24.5767 8.78508C25.0867 9.37437 24.8281 10.4379 23.9998 11.1607Z" fill="url(#paint12_linear_421_1118)"/>
<path d="M23.7944 11.1088C23.6337 11.25 23.457 11.3718 23.2679 11.4715L22.9927 11.5949H22.9881L19.1357 13.3241L19.1201 13.3315C18.7293 13.5009 18.3221 13.4641 18.0983 13.2053C17.7974 12.8582 17.9368 12.2431 18.4083 11.8242L18.5285 11.7321L21.8205 9.09964L22.2919 8.72213C23.0579 8.23596 23.9347 8.22123 24.3769 8.73225C24.8814 9.32246 24.6227 10.386 23.7944 11.1088Z" fill="url(#paint13_linear_421_1118)"/>
<defs>
<linearGradient id="paint0_linear_421_1118" x1="4.94492" y1="30.7322" x2="33.5309" y2="9.89066" gradientUnits="userSpaceOnUse">
<stop stop-color="#003DEE"/>
<stop offset="0.03" stop-color="#00CBFB"/>
<stop offset="0.99" stop-color="#2E71F2"/>
</linearGradient>
<linearGradient id="paint1_linear_421_1118" x1="17.2653" y1="25.313" x2="24.7104" y2="12.2487" gradientUnits="userSpaceOnUse">
<stop offset="0.49" stop-color="#0C42DD"/>
<stop offset="1" stop-color="#2B7EF3"/>
</linearGradient>
<linearGradient id="paint2_linear_421_1118" x1="33.0336" y1="16.5726" x2="32.1371" y2="28.8376" gradientUnits="userSpaceOnUse">
<stop stop-color="#2F76F3"/>
<stop offset="0.63" stop-color="#0548F1"/>
<stop offset="1" stop-color="#002BAB"/>
</linearGradient>
<linearGradient id="paint3_linear_421_1118" x1="8.01078" y1="44.1268" x2="21.5765" y2="23.6404" gradientUnits="userSpaceOnUse">
<stop stop-color="#17ACF8"/>
<stop offset="0.17" stop-color="#002BAB"/>
<stop offset="1" stop-color="#002BAB"/>
</linearGradient>
<linearGradient id="paint4_linear_421_1118" x1="9.82842" y1="12.4768" x2="9.96614" y2="26.3795" gradientUnits="userSpaceOnUse">
<stop offset="0.08" stop-color="#17ACF8"/>
<stop offset="0.63" stop-color="#0548F1"/>
<stop offset="1" stop-color="#002BAB"/>
</linearGradient>
<linearGradient id="paint5_linear_421_1118" x1="19.1257" y1="31.7609" x2="19.0018" y2="35.7128" gradientUnits="userSpaceOnUse">
<stop offset="0.06" stop-color="#3172F2"/>
<stop offset="0.63" stop-color="#003DEE"/>
<stop offset="1" stop-color="#00CBFB"/>
</linearGradient>
<linearGradient id="paint6_linear_421_1118" x1="24.0102" y1="14.915" x2="20.6069" y2="27.3397" gradientUnits="userSpaceOnUse">
<stop stop-color="#17ACF8"/>
<stop offset="0.64" stop-color="#0548F1"/>
<stop offset="1" stop-color="#002BAB"/>
</linearGradient>
<linearGradient id="paint7_linear_421_1118" x1="22.6266" y1="11.3902" x2="25.8486" y2="15.8682" gradientUnits="userSpaceOnUse">
<stop offset="0.01" stop-color="#052BAC"/>
<stop offset="0.12" stop-color="#072EAF"/>
<stop offset="0.95" stop-color="#307AF3"/>
</linearGradient>
<linearGradient id="paint8_linear_421_1118" x1="23.9059" y1="13.617" x2="25.9395" y2="7.94173" gradientUnits="userSpaceOnUse">
<stop offset="0.01" stop-color="#052BAC"/>
<stop offset="0.1" stop-color="#072EAF"/>
<stop offset="0.95" stop-color="#307AF3"/>
</linearGradient>
<linearGradient id="paint9_linear_421_1118" x1="520.805" y1="261.048" x2="551.395" y2="219.785" gradientUnits="userSpaceOnUse">
<stop offset="0.01" stop-color="#052BAC"/>
<stop offset="0.1" stop-color="#072EAF"/>
<stop offset="0.95" stop-color="#307AF3"/>
</linearGradient>
<linearGradient id="paint10_linear_421_1118" x1="18.8984" y1="2.09567" x2="24.1657" y2="8.00727" gradientUnits="userSpaceOnUse">
<stop stop-color="#00FAFF"/>
<stop offset="0.78" stop-color="#2C7BF3"/>
</linearGradient>
<linearGradient id="paint11_linear_421_1118" x1="16.267" y1="3.11909" x2="23.2225" y2="2.97289" gradientUnits="userSpaceOnUse">
<stop stop-color="#0528AD"/>
<stop offset="0.56" stop-color="#00C3FA"/>
<stop offset="1" stop-color="#05D0FC"/>
</linearGradient>
<linearGradient id="paint12_linear_421_1118" x1="18.4614" y1="13.4883" x2="24.696" y2="8.94313" gradientUnits="userSpaceOnUse">
<stop offset="0.01" stop-color="#052BAC"/>
<stop offset="0.76" stop-color="#072EAF"/>
</linearGradient>
<linearGradient id="paint13_linear_421_1118" x1="18.415" y1="13.3112" x2="24.7075" y2="9.14929" gradientUnits="userSpaceOnUse">
<stop stop-color="#00FAFF"/>
<stop offset="0.88" stop-color="#307AF3"/>
</linearGradient>
</defs>
</svg>
