<svg width="32" height="32" viewBox="0 0 32 32" fill="none" xmlns="http://www.w3.org/2000/svg">
<path d="M21.5928 6H2C1.44727 6 1 5.55273 1 5C1 4.44727 1.44727 4 2 4H21.5928C22.1455 4 22.5928 4.44727 22.5928 5C22.5928 5.55273 22.1455 6 21.5928 6Z" fill="#0064D6"/>
<path d="M11.3555 11.5H2C1.44727 11.5 1 11.0527 1 10.5C1 9.94727 1.44727 9.5 2 9.5H11.3555C11.9082 9.5 12.3555 9.94727 12.3555 10.5C12.3555 11.0527 11.9082 11.5 11.3555 11.5Z" fill="#0064D6"/>
<path d="M11.3555 17H2C1.44727 17 1 16.5527 1 16C1 15.4473 1.44727 15 2 15H11.3555C11.9082 15 12.3555 15.4473 12.3555 16C12.3555 16.5527 11.9082 17 11.3555 17Z" fill="#0064D6"/>
<path d="M11.3555 22.5H2C1.44727 22.5 1 22.0527 1 21.5C1 20.9473 1.44727 20.5 2 20.5H11.3555C11.9082 20.5 12.3555 20.9473 12.3555 21.5C12.3555 22.0527 11.9082 22.5 11.3555 22.5Z" fill="#0064D6"/>
<path d="M22.3848 28H2C1.44727 28 1 27.5527 1 27C1 26.4473 1.44727 26 2 26H22.3848C22.9375 26 23.3848 26.4473 23.3848 27C23.3848 27.5527 22.9375 28 22.3848 28Z" fill="#0064D6"/>
<path d="M29.999 24.4668C29.7432 24.4668 29.4873 24.3691 29.292 24.1738L25.5 20.3818C25.1094 19.9912 25.1094 19.3584 25.5 18.9678C25.8906 18.5771 26.5234 18.5771 26.9141 18.9678L30.7061 22.7598C31.0967 23.1504 31.0967 23.7832 30.7061 24.1738C30.5107 24.3691 30.2549 24.4668 29.999 24.4668Z" fill="#0064D6"/>
<path d="M21.5928 22.582C19.665 22.583 17.7383 21.8486 16.2715 20.3818C14.8496 18.96 14.0664 17.0703 14.0664 15.0596C14.0664 13.0488 14.8496 11.1592 16.2715 9.73828C17.6924 8.31641 19.582 7.5332 21.5928 7.5332C23.6035 7.5332 25.4932 8.31641 26.915 9.73828C28.3369 11.1592 29.1201 13.0488 29.1201 15.0596C29.1201 17.0703 28.3369 18.96 26.915 20.3818C25.4473 21.8486 23.5195 22.582 21.5928 22.582ZM21.5928 9.53321C20.1172 9.53321 18.7295 10.1084 17.6855 11.1523C16.6416 12.1963 16.0664 13.584 16.0664 15.0596C16.0664 16.5361 16.6416 17.9238 17.6855 18.9678C19.8398 21.1221 23.3447 21.1221 25.501 18.9678C26.5449 17.9238 27.1201 16.5361 27.1201 15.0596C27.1201 13.584 26.5449 12.1963 25.501 11.1523C24.457 10.1084 23.0693 9.53321 21.5928 9.53321Z" fill="#0064D6"/>
</svg>
