<svg width="24" height="24" viewBox="0 0 24 24" fill="none" xmlns="http://www.w3.org/2000/svg">
<path d="M21.9504 15.87C21.8919 15.6489 21.7878 15.4426 21.6446 15.2643C21.5015 15.0861 21.3226 14.9398 21.1195 14.835L16.8546 12.6236C16.5104 12.4411 16.1122 12.3883 15.7324 12.4751C15.3527 12.5619 15.0168 12.7823 14.7859 13.0963L14.0964 14.0415C14.0609 14.0907 14.0088 14.1251 13.9497 14.1385C13.8907 14.1518 13.8288 14.1431 13.7757 14.114C12.7616 13.5366 11.8332 12.8201 11.0175 11.9854C10.1833 11.1691 9.4673 10.2401 8.8902 9.22547C8.86109 9.17235 8.85239 9.11042 8.86572 9.05134C8.87906 8.99225 8.91351 8.94007 8.9626 8.90463L9.90385 8.21464C10.2176 7.98366 10.4379 7.64752 10.5246 7.26754C10.6113 6.88756 10.5587 6.48906 10.3762 6.1447L8.17995 1.88061C8.07448 1.67709 7.92733 1.49809 7.7481 1.35528C7.56887 1.21247 7.36157 1.10905 7.13973 1.05177C6.91788 0.994479 6.68645 0.984611 6.46054 1.0228C6.23462 1.061 6.01929 1.14639 5.82856 1.27343L3.14963 3.06738C2.77346 3.318 2.46972 3.66313 2.26882 4.0682C2.06793 4.47326 1.97694 4.92404 2.00497 5.37537C2.04042 6.13846 2.1431 6.89693 2.31182 7.64196C3.0393 10.4502 4.79423 13.3378 7.23181 15.7803C9.6694 18.2228 12.5586 19.9719 15.3651 20.693C16.1097 20.8617 16.8677 20.9645 17.6303 21H17.8027C18.2235 20.9991 18.6376 20.8952 19.009 20.6973C19.3804 20.4995 19.6978 20.2137 19.9335 19.865L21.7194 17.1844C21.8483 16.994 21.9355 16.7784 21.9754 16.5519C22.0152 16.3254 22.0067 16.093 21.9504 15.87ZM20.5713 16.4151L18.7957 19.0991C18.6778 19.2732 18.5166 19.4135 18.3279 19.506C18.1393 19.5986 17.9297 19.6403 17.72 19.6269C17.0436 19.5957 16.3712 19.5068 15.7099 19.3613C13.1379 18.692 10.4762 17.074 8.21098 14.7971C5.94579 12.5201 4.32188 9.86715 3.65301 7.29352C3.50637 6.63196 3.41641 5.95909 3.38408 5.28222C3.3703 5.07281 3.41179 4.86345 3.50437 4.67514C3.59696 4.48683 3.73739 4.32618 3.91159 4.2093L6.59052 2.42225C6.63131 2.39493 6.67936 2.3805 6.72844 2.38085H6.79394C6.82789 2.38971 6.85958 2.40566 6.88692 2.42766C6.91426 2.44966 6.93662 2.47721 6.95254 2.5085L9.15913 6.77603C9.18655 6.82895 9.19433 6.88989 9.18107 6.94801C9.16781 7.00612 9.13438 7.05765 9.08672 7.09342L8.14548 7.78341C7.8263 8.02101 7.60516 8.36737 7.52385 8.75702C7.44253 9.14668 7.50668 9.55265 7.70416 9.8982C8.34231 11.0143 9.13124 12.0371 10.0487 12.9376C10.9485 13.8556 11.9706 14.645 13.0862 15.2835C13.4315 15.4811 13.8372 15.5453 14.2266 15.4639C14.616 15.3826 14.9622 15.1613 15.1997 14.8419L15.8892 13.8966C15.925 13.849 15.9765 13.8155 16.0345 13.8022C16.0926 13.789 16.1535 13.7968 16.2064 13.8242L20.4713 16.0321C20.5025 16.0485 20.53 16.0712 20.5519 16.0988C20.5737 16.1265 20.5896 16.1584 20.5984 16.1925C20.6071 16.2267 20.6087 16.2623 20.6028 16.2971C20.597 16.3318 20.5839 16.365 20.5644 16.3944L20.5713 16.4151Z" fill="#2583ED"/>
</svg>
