<svg width="24" height="24" viewBox="0 0 24 24" fill="none" xmlns="http://www.w3.org/2000/svg">
<path d="M23.8535 22.4394L16.8817 15.4676C18.204 13.8351 19 11.7597 19 9.50002C19 4.26173 14.7382 0 9.49997 0C4.26169 0 0 4.26173 0 9.50002C0 14.7383 4.26173 19 9.50002 19C11.7597 19 13.8351 18.204 15.4676 16.8817L22.4394 23.8535C22.6348 24.0487 22.9513 24.0487 23.1466 23.8535L23.8535 23.1465C24.0487 22.9513 24.0487 22.6347 23.8535 22.4394ZM9.50002 17C5.36428 17 2.00002 13.6357 2.00002 9.50002C2.00002 5.36428 5.36428 2.00002 9.50002 2.00002C13.6357 2.00002 17 5.36428 17 9.50002C17 13.6357 13.6357 17 9.50002 17Z" fill="white"/>
</svg>
