<svg width="24" height="24" viewBox="0 0 24 24" fill="none" xmlns="http://www.w3.org/2000/svg">
<path d="M11.9996 0C5.38349 0 0 5.38306 0 12C0 18.6169 5.38349 24 11.9996 24C18.6169 24 23.9996 18.6169 23.9996 12C23.9996 5.38306 18.6169 0 11.9996 0ZM11.9996 22.4001C6.26514 22.4001 1.59991 17.7349 1.59991 12C1.59991 6.26514 6.26557 1.59991 11.9996 1.59991C17.7349 1.59991 22.3997 6.26514 22.3997 12C22.3997 17.7349 17.7353 22.4001 11.9996 22.4001Z" fill="#2583ED"/>
<path d="M17.9426 11.1311H12.7997V4.33093C12.7997 3.88903 12.4415 3.53076 12 3.53076C11.5589 3.53076 11.2007 3.88946 11.2007 4.33093V12.7306H17.9426C18.3841 12.7306 18.7424 12.3728 18.742 11.9308C18.742 11.4894 18.3833 11.1311 17.9426 11.1311Z" fill="#2583ED"/>
</svg>
