<svg width="32" height="32" viewBox="0 0 32 32" fill="none" xmlns="http://www.w3.org/2000/svg">
<path d="M24.4844 27.3137L4.68543 7.51472C3.90435 6.73364 3.90435 5.46735 4.68539 4.68632C5.46642 3.90529 6.73275 3.90524 7.51383 4.68632L27.3129 24.4853C28.0939 25.2664 28.0939 26.5327 27.3129 27.3138C26.5318 28.0949 25.2655 28.0948 24.4844 27.3137Z" fill="#2583ED"/>
<path d="M27.3131 7.51468L7.51411 27.3137C6.73302 28.0947 5.46674 28.0947 4.68571 27.3137C3.90468 26.5327 3.90463 25.2663 4.68571 24.4853L24.4847 4.68623C25.2658 3.9052 26.5321 3.90515 27.3132 4.68623C28.0943 5.46732 28.0942 6.7336 27.3131 7.51468Z" fill="#2583ED"/>
</svg>
